<?xml version="1.0" encoding="UTF-8"?>
<svg version="1.1" xmlns="http://www.w3.org/2000/svg" width="358" height="346">
<path d="M0 0 C16.12503854 -0.25513736 32.24923896 -0.45118823 48.37580681 -0.56993389 C55.86452005 -0.62654703 63.35195277 -0.7036601 70.83984375 -0.82983398 C77.36990342 -0.93981515 83.89903551 -1.01051856 90.42999566 -1.03497344 C93.88556906 -1.04926061 97.33849014 -1.08258245 100.79320908 -1.16303062 C123.47454419 -1.67085462 123.47454419 -1.67085462 128.81744385 2.33309937 C131.38605456 5.11164039 133.1588799 7.70987623 135 11 C136.43039664 12.81404824 137.88576657 14.60893393 139.375 16.375 C140.46941406 17.73238281 140.46941406 17.73238281 141.5859375 19.1171875 C144.2904171 22.34680878 147.12154336 25.42614844 150 28.5 C154.43269326 33.23359261 158.6333493 38.07188269 162.62559032 43.1895771 C164.91359609 46.03098256 164.91359609 46.03098256 167.57427692 48.29722404 C173.27854936 53.53362909 175.87811486 57.64397702 176.20927429 65.26345825 C176.2775232 68.52323583 176.21998826 71.77239936 176.15112305 75.03173828 C176.14993747 76.83467329 176.15315616 78.63761571 176.16041565 80.4405365 C176.16751984 85.30649194 176.11308972 90.16998905 176.04687095 95.03542566 C175.98784192 100.13173353 175.98512272 105.22807924 175.97602844 110.32467651 C175.95309882 118.87053084 175.89426665 127.41548291 175.80932617 135.9609375 C175.68939557 148.02889247 175.63214006 160.09653797 175.58846223 172.16497827 C175.5270736 188.31565868 175.44676788 204.46654033 175.29604149 220.61665535 C175.28027443 222.36746752 175.26616497 224.11829548 175.25378799 225.8691349 C175.23649323 228.24829024 175.21296332 230.62729775 175.18754578 233.00637817 C175.18363742 233.70800555 175.17972906 234.40963293 175.17570227 235.13252175 C175.1144132 239.8855868 175.1144132 239.8855868 174 241 C171.75975357 241.09704641 169.51637946 241.12186656 167.27403259 241.12025452 C166.56264006 241.12110894 165.85124752 241.12196337 165.11829764 241.12284368 C162.71677952 241.12450057 160.31533012 241.11897374 157.91381836 241.11352539 C156.19940696 241.11324354 154.48499544 241.11340122 152.77058411 241.1139679 C148.10136027 241.11425594 143.43216188 241.10835804 138.76294398 241.10139394 C133.88888473 241.09516161 129.01482495 241.0945567 124.14076233 241.09336853 C114.9043057 241.09025486 105.66786085 241.08204098 96.43140942 241.07201904 C85.91889135 241.06085902 75.40637272 241.05534774 64.89385021 241.05032361 C43.26255877 241.0398584 21.63128347 241.02151247 0 241 C0 220.21 0 199.42 0 178 C3.96 178 7.92 178 12 178 C12.89691835 184.10773463 13.13305622 190.01954784 13.09765625 196.1875 C13.09553383 197.60216553 13.09553383 197.60216553 13.09336853 199.04541016 C13.0878124 202.03030697 13.07526823 205.01512621 13.0625 208 C13.05747932 210.03515516 13.05291741 212.07031151 13.04882812 214.10546875 C13.03785737 219.07034197 13.02062339 224.03515787 13 229 C13.84841272 228.92806458 14.69682545 228.85612917 15.57094765 228.78201389 C24.06616992 228.11137755 32.46364702 227.88731614 40.98193359 227.97827148 C42.33529627 227.98863565 43.68866276 227.99851014 45.04203224 228.00794315 C48.61936826 228.03419592 52.19661362 228.06702348 55.77388 228.10135651 C59.14846063 228.13270653 62.52307713 228.15793571 65.89770508 228.18371582 C75.7235203 228.26225804 85.54925647 228.35045035 95.375 228.4375 C128.354375 228.7159375 128.354375 228.7159375 162 229 C162 176.53 162 124.06 162 70 C146.16 70 130.32 70 114 70 C113.34 69.67 112.68 69.34 112 69 C110.81481256 50.03700101 111.53672314 30.99435112 112 12 C62.995 12.495 62.995 12.495 13 13 C13 14.98 13 16.96 13 19 C14.07636719 19.15855469 15.15273437 19.31710938 16.26171875 19.48046875 C37.1690642 22.74175489 56.39436376 31.07143424 69.578125 48.24609375 C78.12778478 59.97287498 84.17208516 72.634412 85.54980469 87.23046875 C85.63542664 88.12531982 85.72104858 89.0201709 85.80926514 89.94213867 C85.87220764 90.62123291 85.93515015 91.30032715 86 92 C86.63591568 91.99777939 87.27183136 91.99555878 87.92701721 91.99327087 C94.56209754 91.97110002 101.1971673 91.95604419 107.83227539 91.94506836 C110.3065636 91.94004821 112.78084885 91.93323074 115.25512695 91.92456055 C118.81722748 91.91239344 122.37928869 91.90674841 125.94140625 91.90234375 C127.04271378 91.89718246 128.1440213 91.89202118 129.27870178 91.88670349 C134.6307755 91.886315 139.72864553 92.05200906 145 93 C145 96.96 145 100.92 145 105 C125.2 105 105.4 105 85 105 C84.67 108.63 84.34 112.26 84 116 C85.77681152 116.02505615 87.55362305 116.0501123 89.38427734 116.07592773 C95.24768456 116.15974383 101.11101558 116.2480132 106.97430992 116.33933926 C110.53004209 116.39455915 114.08578251 116.44797763 117.64160156 116.49731445 C121.72730602 116.55408168 125.81285525 116.61862054 129.8984375 116.68359375 C131.17866791 116.70030624 132.45889832 116.71701874 133.77792358 116.73423767 C135.54953354 116.7641555 135.54953354 116.7641555 137.35693359 116.79467773 C138.92246475 116.81799416 138.92246475 116.81799416 140.5196228 116.84178162 C143 117 143 117 145 118 C145.02687279 119.81242052 145.04633715 121.62495233 145.0625 123.4375 C145.07410156 124.44683594 145.08570313 125.45617187 145.09765625 126.49609375 C145 129 145 129 144 130 C141.91380978 130.09417773 139.82439523 130.11742878 137.73608398 130.11352539 C136.7556311 130.11374443 136.7556311 130.11374443 135.75537109 130.1139679 C133.58557872 130.11326883 131.41587121 130.10547678 129.24609375 130.09765625 C127.74536689 130.09579205 126.24463943 130.09436816 124.74391174 130.09336853 C120.78681774 130.08954352 116.82976022 130.0797134 112.87268066 130.06866455 C108.83765151 130.05845006 104.80261647 130.05387083 100.76757812 130.04882812 C92.84503531 130.03809111 84.92252219 130.0210149 77 130 C76.54488037 131.16825317 76.54488037 131.16825317 76.08056641 132.36010742 C74.50700764 136.20441175 72.24137102 139.51997657 70 143 C71.20052002 142.83846436 72.40104004 142.67692871 73.63793945 142.51049805 C80.01630031 141.80614061 86.38223525 141.83775149 92.79296875 141.83203125 C94.75016594 141.82703865 94.75016594 141.82703865 96.74690247 141.82194519 C99.4926537 141.81599594 102.23837364 141.81410121 104.98413086 141.81469727 C108.49098184 141.81479929 111.99763222 141.80108645 115.50443554 141.78392506 C118.87144959 141.77010689 122.23842673 141.7707163 125.60546875 141.76953125 C126.85869431 141.76234573 128.11191986 141.75516022 129.40312195 141.74775696 C131.16073601 141.7523719 131.16073601 141.7523719 132.95385742 141.75708008 C133.97928146 141.75565506 135.00470551 141.75423004 136.061203 141.75276184 C139.29380883 142.02471785 141.97206143 142.8627632 145 144 C145.02688151 145.64574566 145.04634123 147.29161413 145.0625 148.9375 C145.07410156 149.85402344 145.08570313 150.77054688 145.09765625 151.71484375 C145 154 145 154 144 155 C141.2611158 155.09516211 138.54752059 155.12554594 135.80834961 155.11352539 C134.94988937 155.11367142 134.09142914 155.11381744 133.20695496 155.1139679 C130.35539262 155.11326847 127.50389475 155.1054747 124.65234375 155.09765625 C122.68079158 155.09579218 120.70923895 155.09436822 118.73768616 155.09336853 C113.53773733 155.08954251 108.33781625 155.07971152 103.13787842 155.06866455 C97.83606339 155.05845222 92.5342439 155.05387129 87.23242188 155.04882812 C76.82160237 155.03808933 66.41080349 155.02101191 56 155 C55.73719238 155.61584961 55.47438477 156.23169922 55.20361328 156.86621094 C53.32909315 160.18939674 50.13770895 161.50558135 46.875 163.25 C46.21628906 163.61351562 45.55757812 163.97703125 44.87890625 164.3515625 C43.25799664 165.24423736 41.62968964 166.12345675 40 167 C41.62010986 167.03758423 41.62010986 167.03758423 43.27294922 167.07592773 C47.27242312 167.16995572 51.27172147 167.27018754 55.27099609 167.37231445 C57.00337626 167.4156808 58.73579963 167.45735463 60.46826172 167.49731445 C62.95553627 167.55497594 65.44259293 167.61868198 67.9296875 167.68359375 C68.70682098 167.70030624 69.48395447 167.71701874 70.28463745 167.73423767 C75.77225659 167.88612829 75.77225659 167.88612829 78 169 C78 172.63 78 176.26 78 180 C75.63375005 181.18312497 74.2047343 181.12680202 71.56616211 181.12939453 C70.64858627 181.13254669 69.73101044 181.13569885 68.78562927 181.13894653 C67.79289505 181.1369223 66.80016083 181.13489807 65.77734375 181.1328125 C64.253619 181.13424759 64.253619 181.13424759 62.69911194 181.13571167 C60.54965147 181.13639289 58.40018895 181.13454261 56.25073242 181.13037109 C52.94770728 181.12501655 49.64481779 181.13032088 46.34179688 181.13671875 C44.2578122 181.13605807 42.17382761 181.13477711 40.08984375 181.1328125 C39.0950853 181.13483673 38.10032684 181.13686096 37.07542419 181.13894653 C36.16100052 181.13579437 35.24657684 181.13264221 34.30444336 181.12939453 C33.49551132 181.12859894 32.68657928 181.12780334 31.85313416 181.12698364 C30 181 30 181 29 180 C28.92794489 178.31391034 28.91613932 176.62499341 28.9375 174.9375 C28.94652344 174.01839844 28.95554688 173.09929687 28.96484375 172.15234375 C28.98224609 171.08693359 28.98224609 171.08693359 29 170 C28.01644531 170.31710938 27.03289062 170.63421875 26.01953125 170.9609375 C21.90995825 172.13215031 17.94093318 172.43609739 13.6875 172.625 C12.93911865 172.67019775 12.1907373 172.71539551 11.41967773 172.76196289 C7.37377596 172.98573774 3.59701599 172.87937556 -0.4375 172.4375 C-3.98157441 172.33380075 -4.9586779 172.96747956 -7.82421875 175.22265625 C-10.34852361 177.72583722 -12.71534431 180.27785705 -15 183 C-18.23861303 181.55575365 -20.61969163 179.74227753 -23.25 177.375 C-23.95640625 176.74335938 -24.6628125 176.11171875 -25.390625 175.4609375 C-25.92171875 174.97882813 -26.4528125 174.49671875 -27 174 C-27.763125 174.825 -28.52625 175.65 -29.3125 176.5 C-33.17356001 179.80283447 -36.92836511 179.40334296 -41.8046875 179.17578125 C-42.52914062 179.11777344 -43.25359375 179.05976563 -44 179 C-43.83757812 179.63164062 -43.67515625 180.26328125 -43.5078125 180.9140625 C-42.92706477 185.02670459 -42.89778911 188.26956038 -45.19677734 191.87890625 C-49.5739795 197.39744192 -54.57892714 202.8767807 -61.37890625 205.109375 C-64.02555184 205.34401894 -66.37417987 205.37511716 -69 205 C-68.99097656 205.6290625 -68.98195313 206.258125 -68.97265625 206.90625 C-69.23451535 214.46600839 -71.63206363 217.88616713 -77 223 C-78.27106295 224.29144071 -79.54190683 225.58309709 -80.8125 226.875 C-81.87309508 227.91860614 -82.93529949 228.96058261 -84 230 C-84.66 230.66 -85.32 231.32 -86 232 C-88.6015625 232.1953125 -88.6015625 232.1953125 -91.625 232.125 C-92.62789062 232.10695312 -93.63078125 232.08890625 -94.6640625 232.0703125 C-95.43492188 232.04710937 -96.20578125 232.02390625 -97 232 C-96.95359375 232.73605469 -96.9071875 233.47210938 -96.859375 234.23046875 C-96.5640327 242.21525886 -96.5640327 242.21525886 -98.5625 245.8125 C-99.366875 246.534375 -100.17125 247.25625 -101 248 C-101.47695816 248.49682281 -101.95391632 248.99364563 -102.44532776 249.50552368 C-106.41891835 253.39015967 -109.186423 254.68300412 -114.73924255 254.67977905 C-115.55619095 254.64881134 -116.37313934 254.61784363 -117.21484375 254.5859375 C-118.07058487 254.57744781 -118.92632599 254.56895813 -119.80799866 254.56021118 C-122.51915838 254.52684354 -125.22725222 254.45160286 -127.9375 254.375 C-129.784462 254.34487857 -131.63147101 254.31750658 -133.47851562 254.29296875 C-137.98684352 254.22710774 -142.49290352 254.12370805 -147 254 C-149.42215258 249.15569485 -148.39686605 241.86185205 -148.45996094 236.48046875 C-148.48649292 234.75394842 -148.52733599 233.02758429 -148.58300781 231.30175781 C-148.66265179 228.80208837 -148.69535418 226.3054444 -148.71875 223.8046875 C-148.75174194 223.04292206 -148.78473389 222.28115662 -148.81872559 221.49630737 C-148.79816515 215.90701369 -147.1008514 213.15486431 -143.24890137 209.19168091 C-142.50676392 208.46842621 -141.76462646 207.74517151 -141 207 C-140.15699341 206.14018524 -139.31398682 205.28037048 -138.44543457 204.39450073 C-135.99320262 201.89384728 -133.51518393 199.42040076 -131.02885437 196.95368958 C-129.36886941 195.30666117 -127.71219765 193.65636048 -126.05627441 192.00524902 C-121.94587777 187.90810448 -117.83000966 183.81647096 -113.71429443 179.72467041 C-110.22481779 176.25504276 -106.73747892 172.78329203 -103.25285339 169.30879211 C-101.63373229 167.69607417 -100.01159216 166.08643782 -98.38928223 164.47692871 C-93.55207306 159.66331915 -88.83735733 154.8020738 -84.39877319 149.61242676 C-82.71509596 147.67157871 -80.92516493 145.89572701 -79.03515625 144.15625 C-78.38095703 143.55039063 -77.72675781 142.94453125 -77.05273438 142.3203125 C-76.39595703 141.71960938 -75.73917969 141.11890625 -75.0625 140.5 C-74.37865234 139.86835938 -73.69480469 139.23671875 -72.99023438 138.5859375 C-71.33017694 137.05357679 -69.66679231 135.52502657 -68 134 C-68.75056735 130.43800874 -69.59089469 129.17298051 -72.5 126.9375 C-75.16652766 124.8774981 -75.89633434 124.31099698 -77 121 C-74.6379461 117.80428002 -72.4517551 115.35730922 -69.328125 112.88671875 C-66.02690746 108.79343056 -66.55788362 105.76184333 -66.875 100.6875 C-67.56695454 77.72338951 -60.21894505 58.18200197 -44.3984375 41.30859375 C-31.96449423 29.34041708 -17.49968223 23.61835137 -1 20 C-0.67 13.4 -0.34 6.8 0 0 Z " fill="#0C1A3F" transform="translate(163,18)"/>
<path d="M0 0 C0 0.66 0 1.32 0 2 C0.84304687 2.20109375 1.68609375 2.4021875 2.5546875 2.609375 C6.97260591 4.39257109 9.72497011 6.98158417 13.125 10.25 C13.73214844 10.81074219 14.33929688 11.37148437 14.96484375 11.94921875 C18.60069378 15.37911649 21.30615477 18.80405674 24 23 C24.66 23.33 25.32 23.66 26 24 C26.74609375 25.78515625 26.74609375 25.78515625 27.4375 28.0625 C28.37308301 31.07821175 29.39197127 33.96986402 30.625 36.875 C32.48864304 41.82194774 32.76596738 46.75491598 33 52 C33.06445312 53.02351563 33.12890625 54.04703125 33.1953125 55.1015625 C33.87830622 73.81559054 25.15582548 89.54295817 12.94921875 103.12109375 C8.2287795 107.67125664 2.64577012 111.13602936 -3.0625 114.3125 C-6.07064634 115.6806304 -6.07064634 115.6806304 -7 118 C-16.07378179 122.25746312 -25.74882086 121.13313945 -35.51538086 120.7121582 C-44.21655663 119.96844108 -44.21655663 119.96844108 -52.24462891 122.38427734 C-53.98395067 124.21691084 -53.98395067 124.21691084 -56 127 C-59.80176785 126.61167953 -61.33264228 124.91890773 -63.75 122.0625 C-64.36359375 121.35222656 -64.9771875 120.64195312 -65.609375 119.91015625 C-67 118 -67 118 -67 116 C-67.66 116 -68.32 116 -69 116 C-69.268125 116.57234375 -69.53625 117.1446875 -69.8125 117.734375 C-72.15550145 122.20457514 -74.54060539 125.48259982 -79 128 C-84.93879177 129.00427466 -91.02822047 128.45936766 -97 128 C-96.91878906 129.21816406 -96.83757812 130.43632812 -96.75390625 131.69140625 C-96.04700539 146.32850147 -96.04700539 146.32850147 -99.375 150.5625 C-105.31951849 155.15429925 -114.86401184 154.05285917 -122 154 C-121.96777344 155.19496094 -121.93554688 156.38992187 -121.90234375 157.62109375 C-121.85229081 172.06364276 -121.85229081 172.06364276 -126.4375 177.625 C-133.05351181 183.1527102 -141.93110681 181.70504892 -150 181 C-149.9685791 181.83978394 -149.9685791 181.83978394 -149.93652344 182.6965332 C-149.85333798 185.23500586 -149.80133619 187.773192 -149.75 190.3125 C-149.69972656 191.63411133 -149.69972656 191.63411133 -149.6484375 192.98242188 C-149.63554687 193.82998047 -149.62265625 194.67753906 -149.609375 195.55078125 C-149.5779541 196.72120972 -149.5779541 196.72120972 -149.54589844 197.9152832 C-150 200 -150 200 -151.71289062 201.75976562 C-154.37857177 203.20528871 -155.96847763 203.3481376 -158.984375 203.29296875 C-159.91894531 203.28330078 -160.85351562 203.27363281 -161.81640625 203.26367188 C-162.78449219 203.23853516 -163.75257813 203.21339844 -164.75 203.1875 C-165.73355469 203.17396484 -166.71710938 203.16042969 -167.73046875 203.14648438 C-170.15420415 203.11118726 -172.57682145 203.06188054 -175 203 C-174.505 201.02 -174.505 201.02 -174 199 C-173.34 199 -172.68 199 -172 199 C-171.5978125 198.0409375 -171.5978125 198.0409375 -171.1875 197.0625 C-170 195 -170 195 -167 194 C-166.67 193.01 -166.34 192.02 -166 191 C-165.34 191 -164.68 191 -164 191 C-164 190.34 -164 189.68 -164 189 C-163.34 189 -162.68 189 -162 189 C-161.67 188.01 -161.34 187.02 -161 186 C-160.34 186 -159.68 186 -159 186 C-159 185.34 -159 184.68 -159 184 C-154.85721228 179.53972761 -150.24942223 175.53233682 -145.72851562 171.4609375 C-142.48202618 168.49922783 -139.72259085 165.4640624 -137 162 C-135.76092021 160.84011913 -134.49027205 159.71285446 -133.1875 158.625 C-129.25597757 155.26347525 -125.61979671 151.69077312 -122 148 C-121.113125 147.13375 -120.22625 146.2675 -119.3125 145.375 C-116.97288534 143.04910699 -116.97288534 143.04910699 -115 140.5 C-112.82768896 137.7846112 -110.55776223 135.35583364 -108 133 C-107.34 133 -106.68 133 -106 133 C-105.67 132.01 -105.34 131.02 -105 130 C-104.34 130 -103.68 130 -103 130 C-103 129.34 -103 128.68 -103 128 C-101.49609375 126.58984375 -101.49609375 126.58984375 -99.4375 124.9375 C-95.52050657 121.63642956 -92.62945518 118.0442004 -89.609375 113.9296875 C-88 112 -88 112 -85.0625 110.375 C-84.381875 109.92125 -83.70125 109.4675 -83 109 C-82.59434276 105.21386577 -82.79692013 102.60923962 -84 99 C-87.40080577 99.10407917 -87.40080577 99.10407917 -91 100 C-92.73538192 102.39224959 -92.73538192 102.39224959 -94 105 C-96.1875 106.3125 -96.1875 106.3125 -98 107 C-98 107.66 -98 108.32 -98 109 C-98.69939697 109.40299316 -99.39879395 109.80598633 -100.11938477 110.22119141 C-103.77671094 112.47962674 -106.23898251 115.27801683 -109.08984375 118.4609375 C-117.94942065 128.14707798 -127.25864554 137.36843664 -136.5625 146.625 C-138.28734665 148.34481415 -140.01195729 150.06486503 -141.73632812 151.78515625 C-144.878191 154.91893776 -148.02134677 158.05140842 -151.16625977 161.18212891 C-151.83199005 161.8456134 -152.49772034 162.5090979 -153.18362427 163.19268799 C-154.29995363 164.30344686 -155.41823231 165.41225579 -156.5397644 166.51776123 C-158.65266057 168.60621933 -160.55826078 170.68709019 -162.4375 173 C-164.36648363 175.2583223 -165.9740941 176.87872514 -168.25 178.6875 C-171.21400979 180.77109261 -171.21400979 180.77109261 -172 184 C-174.5625 185.1875 -174.5625 185.1875 -177 186 C-177.55490288 181.84797565 -177.27839075 180.36465985 -174.69334412 176.97854614 C-173.61751987 175.88841542 -172.52493208 174.81467545 -171.41967773 173.75439453 C-170.82620041 173.16164734 -170.23272308 172.56890015 -169.6212616 171.95819092 C-167.65577028 170.00197586 -165.66999087 168.06777645 -163.68359375 166.1328125 C-162.30892856 164.77188942 -160.93566209 163.40955217 -159.56373596 162.04586792 C-155.94444377 158.45515731 -152.30797184 154.88236475 -148.66717529 151.31347656 C-144.26815817 146.99574209 -139.887582 142.65932022 -135.50634098 138.32356071 C-132.09203574 134.94483022 -128.6745162 131.5696232 -125.24595642 128.20535278 C-117.0454956 120.16678897 -117.0454956 120.16678897 -109.39624023 111.60791016 C-107.78016504 109.74683808 -106.04184457 108.06267327 -104.25390625 106.3671875 C-103.64482422 105.78839844 -103.03574219 105.20960938 -102.40820312 104.61328125 C-101.15930824 103.43707337 -99.90116621 102.27061998 -98.63476562 101.11328125 C-94.84020332 97.54015379 -94.84020332 97.54015379 -93.58984375 92.5703125 C-93.72519531 91.72210938 -93.86054687 90.87390625 -94 90 C-94.66 90 -95.32 90 -96 90 C-100.94290008 84.94214876 -100.94290008 84.94214876 -101.125 81.9375 C-100 80 -100 80 -97.44140625 78.234375 C-94.53005598 75.36238148 -94.6312629 72.71602721 -94.58203125 68.73828125 C-94.63380633 66.26237026 -94.71158249 63.78689519 -94.8125 61.3125 C-95.15143092 50.71674169 -95.10818059 41.25242138 -90.875 31.375 C-90.52179688 30.53710938 -90.16859375 29.69921875 -89.8046875 28.8359375 C-89.53914063 28.23007813 -89.27359375 27.62421875 -89 27 C-88.34 27 -87.68 27 -87 27 C-86.62875 25.9790625 -86.62875 25.9790625 -86.25 24.9375 C-81.34353078 13.40729734 -72.07051481 3.85804702 -60.41015625 -1.1015625 C-59.21712891 -1.54628906 -59.21712891 -1.54628906 -58 -2 C-56.88625 -2.495 -55.7725 -2.99 -54.625 -3.5 C-37.07060151 -10.76388903 -16.76743632 -8.38371816 0 0 Z " fill="#97AFEC" transform="translate(204,57)"/>
<path d="M0 0 C16.12503854 -0.25513736 32.24923896 -0.45118823 48.37580681 -0.56993389 C55.86452005 -0.62654703 63.35195277 -0.7036601 70.83984375 -0.82983398 C77.36990342 -0.93981515 83.89903551 -1.01051856 90.42999566 -1.03497344 C93.88556906 -1.04926061 97.33849014 -1.08258245 100.79320908 -1.16303062 C123.47454419 -1.67085462 123.47454419 -1.67085462 128.81744385 2.33309937 C131.38605456 5.11164039 133.1588799 7.70987623 135 11 C136.43039664 12.81404824 137.88576657 14.60893393 139.375 16.375 C140.46941406 17.73238281 140.46941406 17.73238281 141.5859375 19.1171875 C144.2904171 22.34680878 147.12154336 25.42614844 150 28.5 C154.43269326 33.23359261 158.6333493 38.07188269 162.62559032 43.1895771 C164.91359609 46.03098256 164.91359609 46.03098256 167.57427692 48.29722404 C173.27854936 53.53362909 175.87811486 57.64397702 176.20927429 65.26345825 C176.2775232 68.52323583 176.21998826 71.77239936 176.15112305 75.03173828 C176.14993747 76.83467329 176.15315616 78.63761571 176.16041565 80.4405365 C176.16751984 85.30649194 176.11308972 90.16998905 176.04687095 95.03542566 C175.98784192 100.13173353 175.98512272 105.22807924 175.97602844 110.32467651 C175.95309882 118.87053084 175.89426665 127.41548291 175.80932617 135.9609375 C175.68939557 148.02889247 175.63214006 160.09653797 175.58846223 172.16497827 C175.5270736 188.31565868 175.44676788 204.46654033 175.29604149 220.61665535 C175.28027443 222.36746752 175.26616497 224.11829548 175.25378799 225.8691349 C175.23649323 228.24829024 175.21296332 230.62729775 175.18754578 233.00637817 C175.18363742 233.70800555 175.17972906 234.40963293 175.17570227 235.13252175 C175.1144132 239.8855868 175.1144132 239.8855868 174 241 C171.75975357 241.09704641 169.51637946 241.12186656 167.27403259 241.12025452 C166.56264006 241.12110894 165.85124752 241.12196337 165.11829764 241.12284368 C162.71677952 241.12450057 160.31533012 241.11897374 157.91381836 241.11352539 C156.19940696 241.11324354 154.48499544 241.11340122 152.77058411 241.1139679 C148.10136027 241.11425594 143.43216188 241.10835804 138.76294398 241.10139394 C133.88888473 241.09516161 129.01482495 241.0945567 124.14076233 241.09336853 C114.9043057 241.09025486 105.66786085 241.08204098 96.43140942 241.07201904 C85.91889135 241.06085902 75.40637272 241.05534774 64.89385021 241.05032361 C43.26255877 241.0398584 21.63128347 241.02151247 0 241 C0 220.21 0 199.42 0 178 C3.96 178 7.92 178 12 178 C12.89691835 184.10773463 13.13305622 190.01954784 13.09765625 196.1875 C13.0962413 197.13061035 13.09482635 198.0737207 13.09336853 199.04541016 C13.0878124 202.03030697 13.07526823 205.01512621 13.0625 208 C13.05747932 210.03515516 13.05291741 212.07031151 13.04882812 214.10546875 C13.03785737 219.07034197 13.02062339 224.03515787 13 229 C13.84841272 228.92806458 14.69682545 228.85612917 15.57094765 228.78201389 C24.06616992 228.11137755 32.46364702 227.88731614 40.98193359 227.97827148 C42.33529627 227.98863565 43.68866276 227.99851014 45.04203224 228.00794315 C48.61936826 228.03419592 52.19661362 228.06702348 55.77388 228.10135651 C59.14846063 228.13270653 62.52307713 228.15793571 65.89770508 228.18371582 C75.7235203 228.26225804 85.54925647 228.35045035 95.375 228.4375 C128.354375 228.7159375 128.354375 228.7159375 162 229 C162 176.53 162 124.06 162 70 C146.16 70 130.32 70 114 70 C113.34 69.67 112.68 69.34 112 69 C110.81481256 50.03700101 111.53672314 30.99435112 112 12 C62.995 12.495 62.995 12.495 13 13 C13 14.98 13 16.96 13 19 C14.07636719 19.15855469 15.15273437 19.31710938 16.26171875 19.48046875 C28.63965968 21.41345446 41.76625199 24.2998498 52 32 C52.33 32.99 52.66 33.98 53 35 C54.66270287 36.33827304 56.32916181 37.67189785 58 39 C58 39.66 58 40.32 58 41 C58.66 41.33 59.32 41.66 60 42 C59.38125 42.0825 58.7625 42.165 58.125 42.25 C55.81562433 42.81258459 55.81562433 42.81258459 54.75 45.0625 C54.37875 46.0215625 54.37875 46.0215625 54 47 C49.1725201 45.58707905 45.2837641 43.57025846 41 41 C41 40.34 41 39.68 41 39 C40.31035156 38.81824219 39.62070313 38.63648438 38.91015625 38.44921875 C37.50056641 38.07216797 37.50056641 38.07216797 36.0625 37.6875 C35.14597656 37.44386719 34.22945313 37.20023438 33.28515625 36.94921875 C30 36 30 36 28.02587891 35.24047852 C21.71719075 32.86105991 15.95870541 32.49767646 9.25 32.5625 C7.66807861 32.56950928 7.66807861 32.56950928 6.05419922 32.57666016 C-2.00685757 32.72931758 -11.95311587 32.95311587 -18 39 C-19.5159375 39.5878125 -19.5159375 39.5878125 -21.0625 40.1875 C-26.01373451 42.19306335 -29.91903776 45.62233284 -34 49 C-34.495 47.515 -34.495 47.515 -35 46 C-35.66 46 -36.32 46 -37 46 C-37.23760011 43.14879868 -37.40517998 40.79844305 -37 38 C-35.125 35.875 -35.125 35.875 -32 34 C-31.17886719 33.505 -30.35773438 33.01 -29.51171875 32.5 C-27.75237441 31.44082888 -25.98442422 30.39578373 -24.20703125 29.3671875 C-21.90522037 28.05771559 -21.90522037 28.05771559 -20 26 C-16.43362088 23.62241392 -12.91589328 22.84305549 -8.8125 21.875 C-6.234375 21.25625 -3.65625 20.6375 -1 20 C-0.67 13.4 -0.34 6.8 0 0 Z " fill="#0D1A3E" transform="translate(163,18)"/>
<path d="M0 0 C0.87140625 0.39058594 1.7428125 0.78117187 2.640625 1.18359375 C9.95962267 4.79198227 15.88293881 9.61946691 21 16 C21.36658069 17.32457823 21.70480698 18.6577072 22 20 C22.48082031 20.46792969 22.96164063 20.93585938 23.45703125 21.41796875 C28.26067402 26.34322273 28.21582993 35.84941543 28.3125 42.3125 C27.96387181 55.03045636 22.01766135 64.26691968 13 73 C4.14540888 80.23149095 -3.44830845 83.55476585 -14.875 83.3125 C-15.75978027 83.29904541 -16.64456055 83.28559082 -17.55615234 83.27172852 C-28.63917023 83.01719324 -36.45837273 81.70563822 -45 74 C-45 73.34 -45 72.68 -45 72 C-45.99 71.67 -46.98 71.34 -48 71 C-57.46247997 60.9032596 -60.54005291 50.65125289 -60.49291992 36.94042969 C-60.01375176 24.57996792 -53.39261048 14.98579148 -44.6875 6.75 C-32.71672581 -3.49344771 -14.46118819 -6.74342641 0 0 Z " fill="#97B1F3" transform="translate(189,73)"/>
<path d="M0 0 C11.95673627 9.61835969 20.42689547 20.2550101 22.8125 36 C22.89997831 37.33192777 22.95891159 38.66583518 23 40 C23.07347656 41.0003125 23.14695312 42.000625 23.22265625 43.03125 C23.86486455 57.65383903 19.65684732 69.97389821 10 81 C9.3709375 81.72703125 8.741875 82.4540625 8.09375 83.203125 C-1.75001791 93.77307251 -13.63951819 98.99803915 -27.91796875 100.37890625 C-35.3423292 100.6061078 -42.15392321 99.81841185 -49.375 98.1875 C-50.10702637 98.0225 -50.83905273 97.8575 -51.59326172 97.6875 C-56.74284828 96.38572758 -56.74284828 96.38572758 -59 93 C-60.71731793 92.03082181 -60.71731793 92.03082181 -62.6875 91.25 C-67.41930095 89.00410897 -70.54560191 85.87566615 -74 82 C-74.73089844 81.20335937 -74.73089844 81.20335937 -75.4765625 80.390625 C-78.10031772 77.41396703 -79.66800735 74.71055094 -81 71 C-81.7115625 69.8553125 -81.7115625 69.8553125 -82.4375 68.6875 C-86.83563072 61.12271517 -87.47171445 54.73258598 -87.375 46.125 C-87.38660156 45.10019531 -87.39820312 44.07539062 -87.41015625 43.01953125 C-87.35836756 29.43363034 -82.44949569 17.04535036 -73.19921875 6.984375 C-68.5410775 2.78129196 -63.24630407 -0.58281276 -58 -4 C-57.01 -4.66 -56.02 -5.32 -55 -6 C-35.86766388 -12.27064605 -17.02778621 -11.8046826 0 0 Z M-66.3671875 16.9453125 C-75.67260945 28.65500615 -77.11064939 40.85336211 -75.67578125 55.25390625 C-74.0296483 64.02160729 -69.00554494 70.61331413 -63 77 C-62.34 77 -61.68 77 -61 77 C-60.67 77.99 -60.34 78.98 -60 80 C-51.31644168 87.77366382 -41.98126307 88.15258115 -30.875 88.3125 C-29.60402466 88.33932861 -29.60402466 88.33932861 -28.30737305 88.36669922 C-17.33090161 88.35170843 -8.95709612 83.65804511 -1.0546875 76.15234375 C8.23945249 66.00380973 12.32352518 57.41591743 12.22265625 43.7265625 C11.80910306 36.80498806 11.08635871 29.95560399 6 25 C5.52433594 23.80310547 5.52433594 23.80310547 5.0390625 22.58203125 C0.80116067 12.05100451 -11.24974573 7.17715811 -21 3 C-37.63890415 -1.74627734 -54.77873368 4.81786083 -66.3671875 16.9453125 Z " fill="#0F1E46" transform="translate(205,68)"/>
<path d="M0 0 C2.4314207 2.23450987 3.85675779 4.02834287 5.21875 7.0390625 C5.26565068 9.03851251 5.27107368 11.03974706 5.21875 13.0390625 C3.28315687 13.17410388 1.344878 13.27107379 -0.59375 13.3515625 C-1.67269531 13.40957031 -2.75164062 13.46757812 -3.86328125 13.52734375 C-4.82621094 13.36621094 -5.78914063 13.20507812 -6.78125 13.0390625 C-8.48046875 10.58203125 -8.48046875 10.58203125 -9.78125 8.0390625 C-12.69211669 7.0687736 -14.68348685 6.87438403 -17.71875 6.8515625 C-19.00072266 6.83029297 -19.00072266 6.83029297 -20.30859375 6.80859375 C-22.9888769 7.05841477 -24.54119235 7.56033163 -26.78125 9.0390625 C-29.89449791 14.59843378 -30.95820119 19.76621796 -29.2421875 25.99609375 C-27.78254815 29.80559205 -26.24882928 31.96097421 -22.78125 34.0390625 C-20.33190593 34.47345059 -20.33190593 34.47345059 -17.78125 34.3515625 C-16.5128125 34.34576172 -16.5128125 34.34576172 -15.21875 34.33984375 C-12.62869441 34.02023753 -10.98023224 33.42815173 -8.78125 32.0390625 C-8.28625 31.0490625 -8.28625 31.0490625 -7.78125 30.0390625 C-10.75125 29.7090625 -13.72125 29.3790625 -16.78125 29.0390625 C-16.78125 26.0690625 -16.78125 23.0990625 -16.78125 20.0390625 C-14.39686291 18.84686896 -12.90468998 18.90990228 -10.24609375 18.90625 C-8.90901367 18.90431641 -8.90901367 18.90431641 -7.54492188 18.90234375 C-6.61228516 18.90621094 -5.67964844 18.91007812 -4.71875 18.9140625 C-3.78224609 18.91019531 -2.84574219 18.90632813 -1.88085938 18.90234375 C-0.54571289 18.90427734 -0.54571289 18.90427734 0.81640625 18.90625 C1.63633057 18.90737793 2.45625488 18.90850586 3.30102539 18.90966797 C5.21875 19.0390625 5.21875 19.0390625 6.21875 20.0390625 C7.23081332 33.64352907 7.23081332 33.64352907 3.21875 39.0390625 C-3.2061578 45.12581725 -10.78102869 46.4066201 -19.46875 46.25390625 C-25.67841534 45.67699477 -31.69669105 44.5590534 -36.78125 40.8515625 C-41.4350551 34.30714908 -43.43059086 29.03334859 -43.21875 20.9765625 C-43.22583984 20.21279297 -43.23292969 19.44902344 -43.24023438 18.66210938 C-43.1584156 11.30471319 -41.01267177 5.41580154 -35.78125 0.0390625 C-25.81592122 -7.02466697 -10.11540809 -7.13193098 0 0 Z " fill="#0C1B39" transform="translate(317.78125,287.9609375)"/>
<path d="M0 0 C4.49136876 4.32103741 6.3075781 8.80307976 6.78125 14.97265625 C6.49795805 20.90998335 3.44172967 25.53840548 -0.375 29.9375 C-4.8799501 33.14102007 -9.89870049 34.09529168 -15.375 33.9375 C-21.49351833 32.61072452 -26.13877902 29.65291119 -30.125 24.8125 C-32.53937432 19.25943907 -33.18334876 13.42504628 -31.25 7.625 C-28.82840182 2.16539684 -24.69750931 -1.466154 -19.375 -4.0625 C-12.25964058 -6.16476528 -5.73760007 -4.54578241 0 0 Z M-18.3125 9 C-20.03489792 12.14084326 -19.86648241 14.43568786 -19.375 17.9375 C-17.32618716 20.57676358 -17.32618716 20.57676358 -14.375 21.9375 C-11.1875472 21.9375 -9.89954507 21.39210573 -7.5 19.3125 C-5.87928859 15.89099813 -6.50510575 13.55090687 -7.375 9.9375 C-9.31231528 7.57339512 -9.31231528 7.57339512 -12.8125 7.625 C-16.21926951 7.68309145 -16.21926951 7.68309145 -18.3125 9 Z " fill="#9BB3F2" transform="translate(301.375,197.0625)"/>
<path d="M0 0 C5.96313166 -0.02464574 11.92623395 -0.042834 17.8894043 -0.05493164 C19.91968298 -0.05997278 21.94995802 -0.06680557 23.98022461 -0.07543945 C26.89177347 -0.08751467 29.8032745 -0.09323034 32.71484375 -0.09765625 C33.6283812 -0.10281754 34.54191864 -0.10797882 35.48313904 -0.11329651 C37.65575427 -0.11349168 39.82827296 -0.06211805 42 0 C43 1 43 1 43.09765625 3.06640625 C43.08605469 3.89011719 43.07445312 4.71382813 43.0625 5.5625 C43.05347656 6.38878906 43.04445312 7.21507812 43.03515625 8.06640625 C43.02355469 8.70449219 43.01195312 9.34257812 43 10 C41.27111445 10.16955795 39.54187557 10.33551514 37.8125 10.5 C36.84957031 10.5928125 35.88664062 10.685625 34.89453125 10.78125 C32.26949639 10.9796332 29.63252045 11 27 11 C27 23.54 27 36.08 27 49 C23.37 49 19.74 49 16 49 C15 48 15 48 14.88647461 44.48999023 C14.88663374 42.92951578 14.89232858 41.36903607 14.90234375 39.80859375 C14.9037587 38.98875504 14.90517365 38.16891632 14.90663147 37.32423401 C14.91224711 34.69528618 14.92480221 32.06642227 14.9375 29.4375 C14.94251299 27.65950643 14.94707624 25.88151154 14.95117188 24.10351562 C14.96222161 19.73564455 14.97949669 15.36783652 15 11 C10.05 11 5.1 11 0 11 C0 7.37 0 3.74 0 0 Z " fill="#0C1B3A" transform="translate(205,284)"/>
<path d="M0 0 C3.375 -0.1875 3.375 -0.1875 7 0 C9.49732489 3.74598733 9.62175294 5.57001031 9 10 C6.375 11.9375 6.375 11.9375 3 14 C1.46723587 15.77829191 1.46723587 15.77829191 0.0625 17.8125 C-2.86983891 21.93634337 -6.08257927 25.76913755 -10 29 C-10.66 29 -11.32 29 -12 29 C-12 29.66 -12 30.32 -12 31 C-13.375 32.625 -13.375 32.625 -15 34 C-15.66 34 -16.32 34 -17 34 C-17.226875 34.556875 -17.45375 35.11375 -17.6875 35.6875 C-19.3703574 38.65253447 -21.53621374 40.65353689 -24 43 C-24.721875 43.763125 -25.44375 44.52625 -26.1875 45.3125 C-28 47 -28 47 -30 47 C-30.226875 47.5775 -30.45375 48.155 -30.6875 48.75 C-32.33038023 51.5663661 -34.39533227 53.08077114 -37 55 C-37 54.34 -37 53.68 -37 53 C-37.8971875 52.814375 -37.8971875 52.814375 -38.8125 52.625 C-41 52 -41 52 -44 50 C-44.99 50.66 -45.98 51.32 -47 52 C-47.99 51.67 -48.98 51.34 -50 51 C-49.06728271 50.07251953 -48.13456543 49.14503906 -47.17358398 48.18945312 C-43.68400607 44.71809851 -40.19783964 41.24333449 -36.71264648 37.76757812 C-35.20933045 36.26926293 -33.70511464 34.77184993 -32.19995117 33.27539062 C-30.0254053 31.11309775 -27.8542129 28.94748387 -25.68359375 26.78125 C-25.01976181 26.12257935 -24.35592987 25.46390869 -23.67198181 24.78527832 C-19.76592801 20.8796854 -16.1251632 16.87194724 -12.65174866 12.57409668 C-10.78475408 10.79487322 -9.51804464 10.38772397 -7 10 C-7 9.34 -7 8.68 -7 8 C-6.21625 7.38125 -5.4325 6.7625 -4.625 6.125 C-2.13770844 4.11147826 -1.14461734 2.91357141 0 0 Z " fill="#0D1C43" transform="translate(113,156)"/>
<path d="M0 0 C1.82421875 1.30078125 1.82421875 1.30078125 3 3 C2.9375 6.5625 2.9375 6.5625 2 10 C-0.89260534 11.96261027 -3.31455956 12.20856152 -6.75 12.3125 C-14.68494252 12.97861447 -19.72923783 17.26417058 -25 23 C-25.66 23.66 -26.32 24.32 -27 25 C-28.59229061 28.74656613 -29.12019211 32.10733136 -29.375 36.125 C-29.66709845 39.46398746 -29.88067776 40.81675513 -31.75 43.6875 C-34 45 -34 45 -36.5625 44.9375 C-39.21576017 43.91701532 -40.26978567 43.22875067 -42 41 C-43.83324122 31.91906093 -40.89215065 24.53599376 -36 17 C-27.51741235 5.48043652 -14.80835013 -2.47615035 0 0 Z " fill="#F5F9FD" transform="translate(178,77)"/>
<path d="M0 0 C3.82027483 1.91013741 4.6734694 2.53247784 6.9375 5.8125 C9.32628432 9.25261557 12.03529095 12.04423427 15 15 C17.28662914 17.72516075 19.50035253 20.5004419 21.71875 23.28125 C24.84157992 27.0029788 28.26400554 30.31307183 31.8125 33.625 C34 36 34 36 34 39 C22.78 39 11.56 39 0 39 C0 26.13 0 13.26 0 0 Z " fill="#90AAEA" transform="translate(287,37)"/>
<path d="M0 0 C3.96 0 7.92 0 12 0 C12 16.17 12 32.34 12 49 C7.71 49 3.42 49 -1 49 C-1.02464247 42.18237576 -1.04283244 35.3647772 -1.05493164 28.54711914 C-1.05997333 26.22582549 -1.06680651 23.90453503 -1.07543945 21.58325195 C-1.08751225 18.25471205 -1.09322979 14.92621398 -1.09765625 11.59765625 C-1.10281754 10.55287613 -1.10797882 9.50809601 -1.11329651 8.43165588 C-1.11337204 7.47073532 -1.11344757 6.50981476 -1.11352539 5.51977539 C-1.115746 4.66928116 -1.11796661 3.81878693 -1.12025452 2.94252014 C-1 1 -1 1 0 0 Z " fill="#0C1B39" transform="translate(255,284)"/>
<path d="M0 0 C0.99 0.66 1.98 1.32 3 2 C3.1875 4.625 3.1875 4.625 3 7 C4.65 7.33 6.3 7.66 8 8 C8 8.33 8 8.66 8 9 C7.236875 9.061875 6.47375 9.12375 5.6875 9.1875 C2.13125059 10.26264517 1.77135629 11.84236488 0 15 C-2.1875 16.3125 -2.1875 16.3125 -4 17 C-4 17.66 -4 18.32 -4 19 C-4.69939697 19.40299316 -5.39879395 19.80598633 -6.11938477 20.22119141 C-9.77671094 22.47962674 -12.23898251 25.27801683 -15.08984375 28.4609375 C-23.94942065 38.14707798 -33.25864554 47.36843664 -42.5625 56.625 C-44.28734665 58.34481415 -46.01195729 60.06486503 -47.73632812 61.78515625 C-50.878191 64.91893776 -54.02134677 68.05140842 -57.16625977 71.18212891 C-57.83199005 71.8456134 -58.49772034 72.5090979 -59.18362427 73.19268799 C-60.29995363 74.30344686 -61.41823231 75.41225579 -62.5397644 76.51776123 C-64.65266057 78.60621933 -66.55826078 80.68709019 -68.4375 83 C-70.36648363 85.2583223 -71.9740941 86.87872514 -74.25 88.6875 C-77.21400979 90.77109261 -77.21400979 90.77109261 -78 94 C-80.5625 95.1875 -80.5625 95.1875 -83 96 C-83.55490288 91.84797565 -83.27839075 90.36465985 -80.69334412 86.97854614 C-79.61751987 85.88841542 -78.52493208 84.81467545 -77.41967773 83.75439453 C-76.82620041 83.16164734 -76.23272308 82.56890015 -75.6212616 81.95819092 C-73.65577028 80.00197586 -71.66999087 78.06777645 -69.68359375 76.1328125 C-68.30892856 74.77188942 -66.93566209 73.40955217 -65.56373596 72.04586792 C-61.94444377 68.45515731 -58.30797184 64.88236475 -54.66717529 61.31347656 C-50.26815817 56.99574209 -45.887582 52.65932022 -41.50634098 48.32356071 C-38.09203574 44.94483022 -34.6745162 41.5696232 -31.24595642 38.20535278 C-23.0454956 30.16678897 -23.0454956 30.16678897 -15.39624023 21.60791016 C-13.78016504 19.74683808 -12.04184457 18.06267327 -10.25390625 16.3671875 C-9.64482422 15.78839844 -9.03574219 15.20960938 -8.40820312 14.61328125 C-7.15930824 13.43707337 -5.90116621 12.27061998 -4.63476562 11.11328125 C-0.84020332 7.54015379 -0.84020332 7.54015379 0.41015625 2.5703125 C0.27480469 1.72210938 0.13945313 0.87390625 0 0 Z " fill="#879CD4" transform="translate(110,147)"/>
<path d="M0 0 C0.33 0.66 0.66 1.32 1 2 C0.67 2.66 0.34 3.32 0 4 C6.27 4 12.54 4 19 4 C19 4.33 19 4.66 19 5 C13.06 5 7.12 5 1 5 C1.04640625 6.33675781 1.0928125 7.67351562 1.140625 9.05078125 C1.17814123 10.80466519 1.21454155 12.55857325 1.25 14.3125 C1.28351562 15.19357422 1.31703125 16.07464844 1.3515625 16.98242188 C1.36445312 17.82998047 1.37734375 18.67753906 1.390625 19.55078125 C1.41157227 20.33106689 1.43251953 21.11135254 1.45410156 21.9152832 C1 24 1 24 -0.71289062 25.75976562 C-3.37857177 27.20528871 -4.96847763 27.3481376 -7.984375 27.29296875 C-8.91894531 27.28330078 -9.85351562 27.27363281 -10.81640625 27.26367188 C-11.78449219 27.23853516 -12.75257812 27.21339844 -13.75 27.1875 C-14.73355469 27.17396484 -15.71710937 27.16042969 -16.73046875 27.14648438 C-19.15420415 27.11118726 -21.57682145 27.06188054 -24 27 C-23.67 25.68 -23.34 24.36 -23 23 C-22.34 23 -21.68 23 -21 23 C-20.731875 22.360625 -20.46375 21.72125 -20.1875 21.0625 C-19 19 -19 19 -16 18 C-15.67 17.01 -15.34 16.02 -15 15 C-14.34 15 -13.68 15 -13 15 C-13 14.34 -13 13.68 -13 13 C-12.34 13 -11.68 13 -11 13 C-10.67 12.01 -10.34 11.02 -10 10 C-9.34 10 -8.68 10 -8 10 C-8 9.34 -8 8.68 -8 8 C-6.3777546 6.29006566 -4.70586575 4.62652316 -3 3 C-2.401875 2.401875 -1.80375 1.80375 -1.1875 1.1875 C-0.795625 0.795625 -0.40375 0.40375 0 0 Z " fill="#98B1EE" transform="translate(53,233)"/>
<path d="M0 0 C15.99458588 -0.25749303 31.98849491 -0.45119217 47.98465538 -0.56993389 C55.41284025 -0.62654546 62.83973403 -0.70365525 70.26708984 -0.82983398 C76.74441188 -0.93982029 83.22079869 -1.01051971 89.69902861 -1.03497344 C93.12666599 -1.04925983 96.5516292 -1.08257589 99.978405 -1.16303062 C122.53841352 -1.63447265 122.53841352 -1.63447265 127.81280518 2.35726929 C130.36192438 5.12580055 132.15083764 7.73849485 134 11 C135.34173153 12.59115924 136.71168079 14.15957328 138.125 15.6875 C139.08447479 16.79067493 140.04330408 17.89441431 141 19 C140.34 19.33 139.68 19.66 139 20 C134.125 15.375 134.125 15.375 133 12 C132.01 11.67 131.02 11.34 130 11 C128.39453125 9.44140625 128.39453125 9.44140625 126.8125 7.5625 C126.28269531 6.94503906 125.75289063 6.32757812 125.20703125 5.69140625 C124 4 124 4 124 2 C83.08 2 42.16 2 0 2 C0 1.34 0 0.68 0 0 Z " fill="#1A2848" transform="translate(164,18)"/>
<path d="M0 0 C0.99 0.66 1.98 1.32 3 2 C5.67373877 2.32205785 5.67373877 2.32205785 8.72485352 2.30297852 C10.4866671 2.32794151 10.4866671 2.32794151 12.28407288 2.35340881 C13.55286789 2.36182297 14.8216629 2.37023712 16.12890625 2.37890625 C18.11563971 2.40486662 20.10237312 2.43083173 22.08910275 2.4570837 C24.87254424 2.49149451 27.65604027 2.51706552 30.4395752 2.54260254 C35.31503545 2.58829859 40.19037786 2.64346493 45.06565857 2.70530701 C47.66200364 2.73734674 50.25841849 2.76421069 52.85487366 2.78553772 C54.611959 2.80577248 54.611959 2.80577248 56.40454102 2.82641602 C57.95649925 2.84068382 57.95649925 2.84068382 59.53981018 2.85523987 C62 3 62 3 64 4 C64.02687279 5.81242052 64.04633715 7.62495233 64.0625 9.4375 C64.07410156 10.44683594 64.08570313 11.45617187 64.09765625 12.49609375 C64 15 64 15 63 16 C60.88318683 16.0942174 58.76319242 16.11742761 56.64428711 16.11352539 C55.98089828 16.11367142 55.31750946 16.11381744 54.63401794 16.1139679 C52.43176044 16.11326881 50.22958655 16.10547665 48.02734375 16.09765625 C46.50419664 16.09579206 44.98104893 16.09436816 43.457901 16.09336853 C39.44162349 16.08954346 35.42538192 16.07971328 31.40911865 16.06866455 C27.31376634 16.05845019 23.21840824 16.05387086 19.12304688 16.04882812 C11.08201472 16.038091 3.04101183 16.02101472 -5 16 C-5 15.34 -5 14.68 -5 14 C17.11 14 39.22 14 62 14 C62 11.03 62 8.06 62 5 C41.54 5 21.08 5 0 5 C0 3.35 0 1.7 0 0 Z " fill="#192141" transform="translate(244,132)"/>
<path d="M0 0 C6.6 0 13.2 0 20 0 C20.09765625 8.49609375 20.09765625 8.49609375 20 11 C19 12 19 12 17.14233398 12.11352539 C16.35157471 12.10828857 15.56081543 12.10305176 14.74609375 12.09765625 C13.89208984 12.09443359 13.03808594 12.09121094 12.15820312 12.08789062 C11.26037109 12.07951172 10.36253906 12.07113281 9.4375 12.0625 C8.53580078 12.05798828 7.63410156 12.05347656 6.70507812 12.04882812 C4.47002411 12.03700244 2.23500398 12.01906638 0 12 C0 8.04 0 4.08 0 0 Z " fill="#162651" transform="translate(192,109)"/>
<path d="M0 0 C0.66 0.33 1.32 0.66 2 1 C-1.86549396 5.62919338 -5.77718315 9.79153445 -10.43359375 13.625 C-12.59558927 15.52281153 -14.26838707 17.7117972 -16 20 C-17 21 -18 22 -19 23 C-20.06876988 24.2446434 -21.13084001 25.4950594 -22.1875 26.75 C-25.28487891 30.32642268 -28.62608506 33.36492482 -32.23046875 36.41796875 C-34.15066257 38.04672941 -34.15066257 38.04672941 -36 40.5 C-38.40079077 43.50098847 -41.14476985 45.81989018 -44.0546875 48.31640625 C-47.18350003 51.02427412 -50.06006856 53.87849089 -52.71875 57.05078125 C-53.3271875 57.77652344 -53.935625 58.50226563 -54.5625 59.25 C-55.12066406 59.93578125 -55.67882813 60.6215625 -56.25390625 61.328125 C-58.17780937 63.17025147 -59.39943607 63.61304519 -62 64 C-60.58480907 60.78224053 -58.88918018 58.64936999 -56.39575195 56.18457031 C-55.65770828 55.4499054 -54.91966461 54.71524048 -54.15925598 53.95831299 C-53.36033432 53.17285095 -52.56141266 52.38738892 -51.73828125 51.578125 C-50.91426315 50.75930847 -50.09024506 49.94049194 -49.24125671 49.09686279 C-46.60303526 46.47645463 -43.95825176 43.86280312 -41.3125 41.25 C-38.68542931 38.65066902 -36.05986951 36.04985812 -33.43730164 33.44598389 C-31.80617276 31.82697488 -30.17237885 30.21064483 -28.53547668 28.59747314 C-24.33984049 24.43818768 -20.34511867 20.18607047 -16.49256897 15.7074585 C-14.77214513 13.7393402 -12.95824635 11.92617363 -11.03515625 10.15625 C-10.05385742 9.24746094 -10.05385742 9.24746094 -9.05273438 8.3203125 C-8.06756836 7.41925781 -8.06756836 7.41925781 -7.0625 6.5 C-6.37865234 5.86835938 -5.69480469 5.23671875 -4.99023438 4.5859375 C-3.33017694 3.05357679 -1.66679231 1.52502657 0 0 Z " fill="#1B2441" transform="translate(95,152)"/>
<path d="M0 0 C1.23122589 -0.00637985 2.46245178 -0.0127597 3.73098755 -0.01933289 C5.06528687 -0.02086114 6.39958672 -0.02197533 7.73388672 -0.02270508 C9.10960932 -0.02592043 10.48533158 -0.02928471 11.86105347 -0.03279114 C14.73745518 -0.03876488 17.6138269 -0.04063267 20.49023438 -0.04003906 C24.17685262 -0.03993714 27.86327957 -0.05362822 31.54985237 -0.07081127 C34.38769416 -0.08192042 37.22548937 -0.08395866 40.06335068 -0.08342934 C41.42292825 -0.08460959 42.78250702 -0.08903395 44.14206314 -0.0967617 C46.03999606 -0.10654603 47.93798534 -0.10242333 49.8359375 -0.09765625 C50.91561798 -0.09908127 51.99529846 -0.10050629 53.10769653 -0.10197449 C55.78857422 0.14526367 55.78857422 0.14526367 58.78857422 2.14526367 C44.53946935 3.49843781 30.27340249 3.22409371 15.97607422 3.14526367 C11.07373296 3.11873209 6.17142854 3.09876417 1.26904297 3.08276367 C0.14523727 3.07446533 -0.97856842 3.06616699 -2.13642883 3.05761719 C-3.168983 3.05431396 -4.20153717 3.05101074 -5.26538086 3.04760742 C-6.17500076 3.04237061 -7.08462067 3.03713379 -8.02180481 3.03173828 C-10.25675604 3.00113609 -10.25675604 3.00113609 -12.21142578 4.14526367 C-11.88142578 3.15526367 -11.55142578 2.16526367 -11.21142578 1.14526367 C-7.41611136 0.26297743 -3.89291857 0.01372367 0 0 Z " fill="#162747" transform="translate(246.21142578125,159.854736328125)"/>
<path d="M0 0 C1.24125447 3.7237634 0.55687285 4.76527511 -0.8125 8.375 C-4.17876981 18.00788972 -6.75634317 29.47440299 -4.3828125 39.64453125 C-3.75251091 42.73128221 -3.43310195 44.8864215 -4 48 C-6.65912007 51.18222565 -9.29209343 53.44875894 -12.55859375 56.00390625 C-13.36425781 56.66261719 -14.16992188 57.32132813 -15 58 C-15 58.66 -15 59.32 -15 60 C-15.99 59.67 -16.98 59.34 -18 59 C-15.88111872 54.98527758 -13.57459994 52.74969226 -10 50 C-7.92207569 46.88311354 -7.76687293 46.38525649 -7.91015625 42.89453125 C-7.93239258 42.0835498 -7.95462891 41.27256836 -7.97753906 40.43701172 C-8.00557617 39.57092285 -8.03361328 38.70483398 -8.0625 37.8125 C-8.26103264 25.03484694 -6.83646615 12.59406114 -1 1 C-0.67 0.67 -0.34 0.34 0 0 Z " fill="#28304F" transform="translate(104,81)"/>
<path d="M0 0 C0.33 0.66 0.66 1.32 1 2 C0.67 2.66 0.34 3.32 0 4 C6.27 4 12.54 4 19 4 C19 4.33 19 4.66 19 5 C13.06 5 7.12 5 1 5 C1 11.27 1 17.54 1 24 C0.34 24 -0.32 24 -1 24 C-1 18.06 -1 12.12 -1 6 C-3.06260522 8.06260522 -5.12214369 10.12932861 -7.125 12.25 C-9 14 -9 14 -11 14 C-11.33 14.99 -11.66 15.98 -12 17 C-12.66 17 -13.32 17 -14 17 C-14.3403125 17.928125 -14.3403125 17.928125 -14.6875 18.875 C-16.37929835 21.61410209 -17.99244161 22.05024472 -21 23 C-20.1875 21.0625 -20.1875 21.0625 -19 19 C-18.01 18.67 -17.02 18.34 -16 18 C-15.67 17.01 -15.34 16.02 -15 15 C-14.34 15 -13.68 15 -13 15 C-13 14.34 -13 13.68 -13 13 C-12.34 13 -11.68 13 -11 13 C-10.67 12.01 -10.34 11.02 -10 10 C-9.34 10 -8.68 10 -8 10 C-8 9.34 -8 8.68 -8 8 C-6.3777546 6.29006566 -4.70586575 4.62652316 -3 3 C-2.401875 2.401875 -1.80375 1.80375 -1.1875 1.1875 C-0.795625 0.795625 -0.40375 0.40375 0 0 Z " fill="#7488BE" transform="translate(53,233)"/>
<path d="M0 0 C0.33 0 0.66 0 1 0 C1 3.96 1 7.92 1 12 C-16.49 12 -33.98 12 -52 12 C-52 11.34 -52 10.68 -52 10 C-35.17 10 -18.34 10 -1 10 C-1 7.03 -1 4.06 -1 1 C-0.67 0.67 -0.34 0.34 0 0 Z " fill="#1E2644" transform="translate(307,111)"/>
<path d="M0 0 C4.62 0 9.24 0 14 0 C12.7917147 4.83314119 10.89620445 7.87096855 7 11 C3.125 11.4375 3.125 11.4375 0 11 C0 7.37 0 3.74 0 0 Z " fill="#14244E" transform="translate(192,133)"/>
<path d="M0 0 C2.4915904 3.7373856 2.45793285 5.57331583 2 10 C0.4375 12.5625 0.4375 12.5625 -2 15 C-2.479496 15.50487946 -2.958992 16.00975891 -3.45301819 16.52993774 C-7.38369604 20.33747851 -10.1100696 21.68304368 -15.58677673 21.67977905 C-16.38185135 21.64881134 -17.17692596 21.61784363 -17.99609375 21.5859375 C-18.82963882 21.57744781 -19.6631839 21.56895813 -20.52198792 21.56021118 C-23.1618554 21.52685336 -25.79856974 21.45161644 -28.4375 21.375 C-30.23628373 21.34487721 -32.03511577 21.31750547 -33.83398438 21.29296875 C-38.22385519 21.22712108 -42.61139469 21.12372993 -47 21 C-47 20.34 -47 19.68 -47 19 C-45.91581787 19.00112793 -44.83163574 19.00225586 -43.71459961 19.00341797 C-39.66801434 18.99972958 -35.62261044 18.95678194 -31.57641602 18.90234375 C-29.82974894 18.88424525 -28.0829394 18.87660406 -26.33618164 18.87988281 C-23.81546129 18.88275789 -21.29765793 18.84726392 -18.77734375 18.8046875 C-18.00414291 18.81378143 -17.23094208 18.82287537 -16.43431091 18.83224487 C-11.07579693 18.6905973 -8.31347206 17.24152619 -4.41798401 13.57717896 C-1.66399228 10.51400069 -0.72427172 8.32912474 -0.375 4.3125 C-0.30023438 3.50425781 -0.22546875 2.69601563 -0.1484375 1.86328125 C-0.09945312 1.24839844 -0.05046875 0.63351563 0 0 Z " fill="#1C2645" transform="translate(64,251)"/>
<path d="M0 0 C-1.051875 0.54527344 -1.051875 0.54527344 -2.125 1.1015625 C-17.02353372 8.84690969 -17.02353372 8.84690969 -28 21 C-28.66 21 -29.32 21 -30 21 C-30.268125 21.72832031 -30.53625 22.45664063 -30.8125 23.20703125 C-31.98006777 25.95311992 -33.32654155 28.22333243 -35 30.6875 C-35.515625 31.45449219 -36.03125 32.22148438 -36.5625 33.01171875 C-38 35 -38 35 -40 37 C-40 28.30236625 -32.15828542 20.46423437 -26.453125 14.3515625 C-8.37429868 -2.97877738 -8.37429868 -2.97877738 0 0 Z " fill="#1C2441" transform="translate(145,45)"/>
<path d="M0 0 C0.99 0.66 1.98 1.32 3 2 C3.1875 4.625 3.1875 4.625 3 7 C5.475 7.495 5.475 7.495 8 8 C8 8.33 8 8.66 8 9 C7.236875 9.061875 6.47375 9.12375 5.6875 9.1875 C2.13125059 10.26264517 1.77135629 11.84236488 0 15 C-2.1875 16.3125 -2.1875 16.3125 -4 17 C-4 17.66 -4 18.32 -4 19 C-10.625 20 -10.625 20 -14 20 C-13.36384766 19.410979 -13.36384766 19.410979 -12.71484375 18.81005859 C-10.79414031 17.01441194 -8.89728095 15.19536416 -7 13.375 C-6.33226563 12.75753906 -5.66453125 12.14007813 -4.9765625 11.50390625 C-0.97672021 7.72723129 -0.97672021 7.72723129 0.4375 2.5390625 C0.293125 1.70117188 0.14875 0.86328125 0 0 Z " fill="#7085BC" transform="translate(110,147)"/>
<path d="M0 0 C13.22606277 6.61303139 23.96820527 21.20240901 29 35 C29.60651999 38.05540146 29.84882015 40.87561636 30 44 C28.2133211 41.31998165 27.0677863 38.96871256 25.875 36 C25.52179688 35.13375 25.16859375 34.2675 24.8046875 33.375 C24 31 24 31 24 28 C23.34 28 22.68 28 22 28 C20.93360356 26.37501495 19.95289657 24.69403834 19 23 C16.33796303 18.48882997 13.79465265 14.65410996 10 11 C10 10.34 10 9.68 10 9 C9.443125 8.938125 8.88625 8.87625 8.3125 8.8125 C4.99913528 7.64834483 3.29524704 5.60541556 1 3 C0.67 2.01 0.34 1.02 0 0 Z " fill="#1A2340" transform="translate(215,51)"/>
<path d="M0 0 C0.33 0.66 0.66 1.32 1 2 C-0.80193921 5.69871732 -2.72680038 7.61949119 -6 10 C-7.33404364 11.66609817 -8.66724106 13.33287398 -10 15 C-11.78880219 16.95142057 -13.58651767 18.86082684 -15.4375 20.75 C-15.90220703 21.24371094 -16.36691406 21.73742187 -16.84570312 22.24609375 C-19.75529355 25.20843825 -21.82237884 26.66639686 -26 27 C-20.89551178 20.81865131 -15.31705058 15.20177122 -9.625 9.5625 C-8.69816406 8.64017578 -7.77132812 7.71785156 -6.81640625 6.76757812 C-4.54654154 4.50941375 -2.27436462 2.25363058 0 0 Z " fill="#283C6A" transform="translate(89,181)"/>
<path d="M0 0 C0.66 0.33 1.32 0.66 2 1 C0.71034824 2.37562854 -0.62689293 3.70766393 -2 5 C-2.66 5 -3.32 5 -4 5 C-4.67561748 6.6630584 -5.33933281 8.33094605 -6 10 C-6.25265625 10.59296875 -6.5053125 11.1859375 -6.765625 11.796875 C-8.82386454 16.84157975 -9.6357837 21.57443298 -10 27 C-10.66 27 -11.32 27 -12 27 C-12 27.99 -12 28.98 -12 30 C-15.01868434 31.50934217 -17.67297229 31.17510672 -21 31 C-21.99 30.34 -22.98 29.68 -24 29 C-23.505 27.515 -23.505 27.515 -23 26 C-23 26.66 -23 27.32 -23 28 C-19.64541845 28.76522801 -19.64541845 28.76522801 -16 29 C-13.74046364 27.42611606 -13.08854045 26.48697249 -12.59375 23.765625 C-12.54734375 22.52039063 -12.54734375 22.52039063 -12.5 21.25 C-11.97979919 14.24258913 -9.82908889 9.25518497 -5 4 C-3.36643049 2.62631655 -1.7074998 1.28062485 0 0 Z " fill="#A8BDEF" transform="translate(160,92)"/>
<path d="M0 0 C5.65553515 -0.27385261 11.30714437 -0.47237131 16.96777344 -0.60424805 C18.88870511 -0.65925625 20.8091827 -0.73409724 22.72851562 -0.82983398 C39.54825528 -1.64721738 39.54825528 -1.64721738 44.40673828 2.33276367 C46.92614107 5.10021577 48.96229266 7.86804813 51 11 C52.35102107 12.58327929 53.72188195 14.1502001 55.125 15.6875 C56.08447479 16.79067493 57.04330408 17.89441431 58 19 C57.01 19.495 57.01 19.495 56 20 C51.125 15.375 51.125 15.375 50 12 C49.01 11.67 48.02 11.34 47 11 C46.1863285 9.5068616 45.38468321 8.007154 44.58984375 6.50390625 C42.65266373 3.93170221 41.16324135 2.30523821 37.99102783 1.47283936 C31.87761086 0.6636369 25.71483153 0.84214392 19.5625 0.9375 C17.66730668 0.93442312 15.77211533 0.92730317 13.87695312 0.91601562 C9.25001366 0.89723455 4.62647089 0.93370364 0 1 C0 0.67 0 0.34 0 0 Z " fill="#17223F" transform="translate(247,18)"/>
<path d="M0 0 C4.95 0 9.9 0 15 0 C15.33 0.99 15.66 1.98 16 3 C16.66 3.33 17.32 3.66 18 4 C15.01665146 9.01202555 11.56048012 12.38748484 7 16 C6.67 15.34 6.34 14.68 6 14 C2.97065509 13.34227572 2.97065509 13.34227572 0 13 C0 12.67 0 12.34 0 12 C1.03125 11.979375 2.0625 11.95875 3.125 11.9375 C8.18075514 10.71433343 10.22053028 8.27180246 13 4 C13.33 3.01 13.66 2.02 14 1 C9.38 1 4.76 1 0 1 C0 0.67 0 0.34 0 0 Z " fill="#8398D2" transform="translate(192,132)"/>
<path d="M0 0 C2.31248497 2.31248497 2.39162501 2.96105659 2.5625 6.125 C2.44886486 11.18988033 0.48044059 13.55697095 -2.984375 17.078125 C-3.64953125 17.71234375 -4.3146875 18.3465625 -5 19 C-6.27108333 20.29142066 -7.54192921 21.58307508 -8.8125 22.875 C-9.87309508 23.91860614 -10.93529949 24.96058261 -12 26 C-12.66 26.66 -13.32 27.32 -14 28 C-17.125 27.625 -17.125 27.625 -20 27 C-18.1875 25.4375 -18.1875 25.4375 -16 24 C-15.01 24.33 -14.02 24.66 -13 25 C-12.67 24.01 -12.34 23.02 -12 22 C-9.12788649 19.51953833 -6.247737 17.1816738 -3.1875 14.9375 C0.19493234 10.39537658 -0.09701274 5.52972644 0 0 Z " fill="#1E2942" transform="translate(91,222)"/>
<path d="M0 0 C1 2 1 2 0.375 4.8125 C-1.98059155 10.27318949 -6.37701011 13.43369352 -11 17 C-11.87109375 14.89453125 -11.87109375 14.89453125 -12 12 C-10.34633148 9.56093575 -8.23058898 7.66789648 -6.0625 5.6875 C-5.48564453 5.13771484 -4.90878906 4.58792969 -4.31445312 4.02148438 C-2.88938934 2.66708491 -1.44634142 1.33165356 0 0 Z " fill="#8FA5DE" transform="translate(50,214)"/>
<path d="M0 0 C0.33 0.99 0.66 1.98 1 3 C0.01 4.32 -0.98 5.64 -2 7 C3.28 7.33 8.56 7.66 14 8 C14 8.33 14 8.66 14 9 C8.06 9 2.12 9 -4 9 C-4 14.94 -4 20.88 -4 27 C-4.33 27 -4.66 27 -5 27 C-5.33 21.06 -5.66 15.12 -6 9 C-6.66 8.67 -7.32 8.34 -8 8 C-5.36 5.36 -2.72 2.72 0 0 Z " fill="#758ABF" transform="translate(111,176)"/>
<path d="M0 0 C1.58206057 0.00667536 3.16410534 0.0186375 4.74609375 0.03515625 C5.55240234 0.03966797 6.35871094 0.04417969 7.18945312 0.04882812 C9.18753131 0.06065107 11.18557158 0.07858711 13.18359375 0.09765625 C13.18359375 0.42765625 13.18359375 0.75765625 13.18359375 1.09765625 C8.56359375 1.42765625 3.94359375 1.75765625 -0.81640625 2.09765625 C-2.48322501 8.09820379 -3.33319777 13.89224205 -3.81640625 20.09765625 C-4.80640625 20.09765625 -5.79640625 20.09765625 -6.81640625 20.09765625 C-6.48640625 19.76765625 -6.15640625 19.43765625 -5.81640625 19.09765625 C-5.67254521 17.76879552 -5.58964337 16.43317038 -5.53515625 15.09765625 C-5.49777344 14.29328125 -5.46039063 13.48890625 -5.421875 12.66015625 C-5.38707031 11.81453125 -5.35226563 10.96890625 -5.31640625 10.09765625 C-5.24780116 8.43080654 -5.17510402 6.76411851 -5.09765625 5.09765625 C-5.06736328 4.35515625 -5.03707031 3.61265625 -5.00585938 2.84765625 C-4.63447568 -0.58285701 -3.61530347 0.09251032 0 0 Z " fill="#273968" transform="translate(85.81640625,209.90234375)"/>
<path d="M0 0 C0.33 0 0.66 0 1 0 C2.12605792 3.82133203 2.64664667 7.04550687 2 11 C-0.65191058 14.21272445 -3.27834324 16.43800316 -6.55859375 19.00390625 C-7.36425781 19.66261719 -8.16992188 20.32132813 -9 21 C-9 21.66 -9 22.32 -9 23 C-9.99 22.67 -10.98 22.34 -12 22 C-9.88111872 17.98527758 -7.57459994 15.74969226 -4 13 C-1.99706653 9.99559979 -1.50728374 8.29006055 -0.875 4.8125 C-0.70742187 3.91144531 -0.53984375 3.01039062 -0.3671875 2.08203125 C-0.24601562 1.39496094 -0.12484375 0.70789063 0 0 Z " fill="#1F2845" transform="translate(98,118)"/>
<path d="M0 0 C2.12472576 -0.05386629 4.24983652 -0.09273071 6.375 -0.125 C7.55835938 -0.14820312 8.74171875 -0.17140625 9.9609375 -0.1953125 C13 0 13 0 15 2 C15.1953125 4.3828125 15.1953125 4.3828125 15.125 7.125 C15.10695312 8.03507812 15.08890625 8.94515625 15.0703125 9.8828125 C15.04710937 10.58148438 15.02390625 11.28015625 15 12 C11.17254549 13.74685308 7.87557277 14.34886333 3.6875 14.625 C2.61886719 14.69976562 1.55023438 14.77453125 0.44921875 14.8515625 C-0.76314453 14.92503906 -0.76314453 14.92503906 -2 15 C-1.67 14.34 -1.34 13.68 -1 13 C1.94140625 12.3671875 1.94140625 12.3671875 5.5625 11.875 C6.76003906 11.70742187 7.95757812 11.53984375 9.19140625 11.3671875 C10.11824219 11.24601562 11.04507813 11.12484375 12 11 C12.67673447 7.59679066 12.67673447 7.59679066 13 4 C10.41073669 1.41073669 8.97294721 1.62601957 5.375 1.375 C3.87066406 1.26285156 3.87066406 1.26285156 2.3359375 1.1484375 C1.56507813 1.09945312 0.79421875 1.05046875 0 1 C0 0.67 0 0.34 0 0 Z " fill="#ABBEEE" transform="translate(167,76)"/>
<path d="M0 0 C0.99 0.66 1.98 1.32 3 2 C3.1875 4.625 3.1875 4.625 3 7 C4.65 7.33 6.3 7.66 8 8 C8 8.33 8 8.66 8 9 C7.0925 9.2475 6.185 9.495 5.25 9.75 C1.87227303 11.04912576 0.42480947 12.40198985 -2 15 C-2.66 15 -3.32 15 -4 15 C-3.37313433 9.35820896 -3.37313433 9.35820896 -1.4375 7.5 C0.34787668 5.96144927 0.34787668 5.96144927 0.1875 2.8125 C0.125625 1.884375 0.06375 0.95625 0 0 Z " fill="#7E92CB" transform="translate(110,147)"/>
<path d="M0 0 C0.66 0.33 1.32 0.66 2 1 C0.28288416 2.82537533 -1.44710422 4.63454827 -3.1875 6.4375 C-3.91163086 7.2119043 -3.91163086 7.2119043 -4.65039062 8.00195312 C-7.62286043 11.05422078 -9.69253741 12.69288658 -14 13 C-4.40650407 1.61571816 -4.40650407 1.61571816 0 0 Z " fill="#1F325F" transform="translate(77,195)"/>
<path d="M0 0 C0.33 0.99 0.66 1.98 1 3 C0.01 3.33 -0.98 3.66 -2 4 C-2.2475 4.5775 -2.495 5.155 -2.75 5.75 C-4.67088168 9.20758702 -7.57030843 11.11118435 -11 13 C-14.4375 13.8125 -14.4375 13.8125 -17 14 C-13.96026806 10.72644253 -10.70642264 8.47094843 -7 6 C-4.61802502 4.05416128 -2.3001854 2.04158467 0 0 Z " fill="#27396A" transform="translate(219,157)"/>
<path d="M0 0 C0.66 0 1.32 0 2 0 C1.75 1.875 1.75 1.875 1 4 C-0.31647119 4.69937532 -1.65022151 5.36729133 -3 6 C-3.33 6.99 -3.66 7.98 -4 9 C-4.66 9 -5.32 9 -6 9 C-6.28875 9.61875 -6.5775 10.2375 -6.875 10.875 C-8 13 -8 13 -10 15 C-10.99 14.67 -11.98 14.34 -13 14 C-12.236875 13.2575 -11.47375 12.515 -10.6875 11.75 C-8.04428801 9.176446 -8.04428801 9.176446 -6.3125 6.6875 C-5.879375 6.130625 -5.44625 5.57375 -5 5 C-4.34 5 -3.68 5 -3 5 C-2.67 4.01 -2.34 3.02 -2 2 C-1.34 2 -0.68 2 0 2 C0 1.34 0 0.68 0 0 Z " fill="#849AD1" transform="translate(101,185)"/>
<path d="M0 0 C1.16337891 0.05478516 2.32675781 0.10957031 3.52539062 0.16601562 C5.34780273 0.27526367 5.34780273 0.27526367 7.20703125 0.38671875 C8.43357422 0.44794922 9.66011719 0.50917969 10.92382812 0.57226562 C13.95673547 0.72568117 16.98814467 0.89355684 20.01953125 1.07421875 C20.01953125 1.40421875 20.01953125 1.73421875 20.01953125 2.07421875 C15.74873418 2.24182335 11.477888 2.40814234 7.20703125 2.57421875 C5.99208984 2.62191406 4.77714844 2.66960937 3.52539062 2.71875 C2.36201172 2.76386719 1.19863281 2.80898437 0 2.85546875 C-1.07354736 2.89736328 -2.14709473 2.93925781 -3.25317383 2.98242188 C-5.16143671 3.04665129 -7.07112524 3.07421875 -8.98046875 3.07421875 C-6.34325413 -0.42739398 -4.21917798 -0.22639492 0 0 Z " fill="#384D7C" transform="translate(159.98046875,176.92578125)"/>
<path d="M0 0 C0.33 0 0.66 0 1 0 C0.99476318 0.68513672 0.98952637 1.37027344 0.98413086 2.07617188 C0.96318555 5.21743837 0.9502844 8.35869011 0.9375 11.5 C0.92912109 12.57765625 0.92074219 13.6553125 0.91210938 14.765625 C0.89428115 20.61328382 1.10894037 26.21863671 2 32 C-0.86226531 28.79577428 -1.36965228 26.76155787 -1.328125 22.5 C-1.32039063 20.9221875 -1.32039063 20.9221875 -1.3125 19.3125 C-1.291875 18.219375 -1.27125 17.12625 -1.25 16 C-1.24484375 14.906875 -1.2396875 13.81375 -1.234375 12.6875 C-1.14824918 3.90266656 -1.14824918 3.90266656 0 0 Z " fill="#35497A" transform="translate(119,98)"/>
<path d="M0 0 C-3 2 -3 2 -5.625 2.5 C-6.40875 2.665 -7.1925 2.83 -8 3 C-8.33 3.66 -8.66 4.32 -9 5 C-12.38035912 5.62599243 -15.56169885 6 -19 6 C-6.41346154 -2.56538462 -6.41346154 -2.56538462 0 0 Z " fill="#7D95CE" transform="translate(166,72)"/>
<path d="M0 0 C0.84406458 2.36546493 1.21729813 3.50952707 0.1796875 5.8515625 C-2.51425189 9.5133843 -4.40399799 11.81817091 -9 13 C-8.43457996 11.67968405 -7.84693528 10.3688699 -7.25 9.0625 C-6.92515625 8.33160156 -6.6003125 7.60070312 -6.265625 6.84765625 C-5 5 -5 5 -2.859375 4.24609375 C-1.93898438 4.12427734 -1.93898438 4.12427734 -1 4 C-0.67 2.68 -0.34 1.36 0 0 Z " fill="#9FB1EA" transform="translate(305,216)"/>
<path d="M0 0 C1.22879883 0.05994141 1.22879883 0.05994141 2.48242188 0.12109375 C8.55334548 0.49084548 8.55334548 0.49084548 10.8125 2.75 C9.6059375 2.73839844 8.399375 2.72679688 7.15625 2.71484375 C5.54166823 2.70545665 3.92708476 2.69635744 2.3125 2.6875 C1.52101562 2.67912109 0.72953125 2.67074219 -0.0859375 2.66210938 C-5.21511717 2.64108815 -10.11086106 3.01062713 -15.1875 3.75 C-14.1875 1.75 -14.1875 1.75 -12.19921875 0.609375 C-8.03482857 -0.57890754 -4.28804471 -0.29431113 0 0 Z " fill="#182959" transform="translate(173.1875,68.25)"/>
<path d="M0 0 C0.99 0.66 1.98 1.32 3 2 C0.03 5.3 -2.94 8.6 -6 12 C-6.66 11.67 -7.32 11.34 -8 11 C-7.8125 8.6875 -7.8125 8.6875 -7 6 C-4.5625 4.375 -4.5625 4.375 -2 3 C-1.34 2.01 -0.68 1.02 0 0 Z " fill="#162854" transform="translate(112,170)"/>
<path d="M0 0 C0.33 0.66 0.66 1.32 1 2 C1.66 2.33 2.32 2.66 3 3 C1.6875 5 1.6875 5 -1 7 C-4.68855385 7.36089448 -8.3051649 7.22933459 -12 7 C-12.33 7.66 -12.66 8.32 -13 9 C-12.67 7.68 -12.34 6.36 -12 5 C-11.29875 5.04125 -10.5975 5.0825 -9.875 5.125 C-6.55479384 4.98064321 -4.04823178 4.31628191 -1 3 C-0.67 2.01 -0.34 1.02 0 0 Z " fill="#0B1432" transform="translate(131,190)"/>
<path d="M0 0 C0.33 0.66 0.66 1.32 1 2 C0.67 2.66 0.34 3.32 0 4 C-0.66 4 -1.32 4 -2 4 C-2.226875 4.556875 -2.45375 5.11375 -2.6875 5.6875 C-4.35702054 8.62903619 -6.58675821 10.6486362 -9 13 C-9.33 13.66 -9.66 14.32 -10 15 C-11.32 14.67 -12.64 14.34 -14 14 C-13.38125 13.7525 -12.7625 13.505 -12.125 13.25 C-9.55750184 11.73970696 -9.28184271 10.63908792 -8 8 C-5.5 5.25 -5.5 5.25 -3 3 C-2.34 3 -1.68 3 -1 3 C-0.67 2.01 -0.34 1.02 0 0 Z " fill="#314476" transform="translate(49,221)"/>
<path d="M0 0 C-1.44126786 3.36295835 -3.20592655 5.62927102 -6 8 C-6.99 8 -7.98 8 -9 8 C-8.875 5.6875 -8.875 5.6875 -8 3 C-3.13793103 0 -3.13793103 0 0 0 Z " fill="#95ABE6" transform="translate(83,186)"/>
<path d="M0 0 C0 0.66 0 1.32 0 2 C-0.59167969 2.12117188 -1.18335938 2.24234375 -1.79296875 2.3671875 C-8.0635983 3.66096888 -8.0635983 3.66096888 -14 6 C-14.33 6.66 -14.66 7.32 -15 8 C-14.9375 6.25 -14.9375 6.25 -14 4 C-9.15065894 0.50847444 -6.09772423 -0.49777341 0 0 Z " fill="#19263C" transform="translate(296,284)"/>
<path d="M0 0 C0.66 0.33 1.32 0.66 2 1 C1.01 1.33 0.02 1.66 -1 2 C-1 4.64 -1 7.28 -1 10 C-6.75 6.375 -6.75 6.375 -9 3 C-8.2575 3.2475 -7.515 3.495 -6.75 3.75 C-5.8425 3.8325 -4.935 3.915 -4 4 C-1.66545339 2.16641665 -1.66545339 2.16641665 0 0 Z " fill="#1E2E5A" transform="translate(221,60)"/>
<path d="M0 0 C3.33864404 0.57562828 4.69102632 1.59063616 7 4 C7.99 4.33 8.98 4.66 10 5 C10.33 6.98 10.66 8.96 11 11 C10.34 11 9.68 11 9 11 C8.5875 10.278125 8.175 9.55625 7.75 8.8125 C5.5944507 5.34822434 3.17418737 3.53934989 0 1 C0 0.67 0 0.34 0 0 Z " fill="#18203E" transform="translate(87,141)"/>
<path d="M0 0 C0.33 0.66 0.66 1.32 1 2 C5.455 1.505 5.455 1.505 10 1 C7.3139714 2.79068573 5.3373411 3.66055791 2.3125 4.625 C1.50425781 4.88539062 0.69601563 5.14578125 -0.13671875 5.4140625 C-0.75160156 5.60742188 -1.36648437 5.80078125 -2 6 C-2.33 4.35 -2.66 2.7 -3 1 C-2.01 0.67 -1.02 0.34 0 0 Z " fill="#A7BDF4" transform="translate(157,76)"/>
<path d="M0 0 C0.66 0.33 1.32 0.66 2 1 C-3.96583144 9.81548975 -3.96583144 9.81548975 -9 11 C-7.59155282 7.78475695 -5.89655214 5.67816132 -3.375 3.25 C-2.74335938 2.63640625 -2.11171875 2.0228125 -1.4609375 1.390625 C-0.73777344 0.70226562 -0.73777344 0.70226562 0 0 Z " fill="#758AC0" transform="translate(131,64)"/>
<path d="M0 0 C-1.44575267 3.3734229 -3.2049086 5.61595146 -6 8 C-8.25 8.75 -8.25 8.75 -10 9 C-9.67 8.01 -9.34 7.02 -9 6 C-8.01 6 -7.02 6 -6 6 C-6.33 5.01 -6.66 4.02 -7 3 C-2.25 0 -2.25 0 0 0 Z " fill="#9BB1EB" transform="translate(103,165)"/>
<path d="M0 0 C3.375 -0.1875 3.375 -0.1875 7 0 C9.4294516 3.6441774 9.16179575 5.71241272 9 10 C8.01 10.495 8.01 10.495 7 11 C7.020625 10.071875 7.04125 9.14375 7.0625 8.1875 C7.15769604 4.97713989 7.15769604 4.97713989 6 2 C3.69 2 1.38 2 -1 2 C-0.67 1.34 -0.34 0.68 0 0 Z " fill="#344779" transform="translate(113,156)"/>
<path d="M0 0 C1 2 1 2 -0.1875 5.8125 C-1.59954987 9.40146008 -3.39406604 12.12448666 -6 15 C-5.54979057 9.14727744 -2.96160773 4.91779881 0 0 Z " fill="#3B4E7F" transform="translate(126,83)"/>
<path d="M0 0 C1.231394 2.46278801 1.07159196 4.2795055 1 7 C-1.31 8.32 -3.62 9.64 -6 11 C-4.54955729 6.89041233 -2.48889248 3.56741255 0 0 Z " fill="#354775" transform="translate(230,141)"/>
<path d="M0 0 C0.33 0.99 0.66 1.98 1 3 C-2.12621626 6.39417765 -4.56541027 8.6062718 -9 10 C-6.68116787 5.49115974 -3.93548431 3.06093224 0 0 Z " fill="#879DD3" transform="translate(73,214)"/>
<path d="M0 0 C1 2 1 2 0.1875 5 C-1 8 -1 8 -3 10 C-3 9.01 -3 8.02 -3 7 C-4.32 7.33 -5.64 7.66 -7 8 C-6.02133662 6.85373678 -5.04205413 5.70800212 -4.0625 4.5625 C-3.51722656 3.92441406 -2.97195312 3.28632813 -2.41015625 2.62890625 C-1.63204305 1.73008851 -0.84063472 0.84063472 0 0 Z " fill="#7E93CA" transform="translate(50,214)"/>
<path d="M0 0 C-1.44077046 3.36179774 -3.24750021 5.59156268 -6 8 C-6.66 8 -7.32 8 -8 8 C-6.52980132 2.36423841 -6.52980132 2.36423841 -4 0.625 C-2 0 -2 0 0 0 Z " fill="#9CB1ED" transform="translate(57,212)"/>
<path d="M0 0 C0.66 0.33 1.32 0.66 2 1 C0.71034824 2.37562854 -0.62689293 3.70766393 -2 5 C-2.66 5 -3.32 5 -4 5 C-4.2475 5.78375 -4.495 6.5675 -4.75 7.375 C-6.15389099 10.32317108 -7.00675737 10.9024777 -10 12 C-8.43873668 8.16780823 -5.97133075 5.82638778 -3 3 C-2.401875 2.401875 -1.80375 1.80375 -1.1875 1.1875 C-0.795625 0.795625 -0.40375 0.40375 0 0 Z " fill="#B9CBF4" transform="translate(160,92)"/>
<path d="M0 0 C0.33 0 0.66 0 1 0 C1.16789217 3.27077164 1.33410238 6.54162664 1.5 9.8125 C1.54769531 10.74126953 1.59539062 11.67003906 1.64453125 12.62695312 C1.68964844 13.51962891 1.73476562 14.41230469 1.78125 15.33203125 C1.82314453 16.15421143 1.86503906 16.9763916 1.90820312 17.82348633 C1.98092498 19.54772929 2 21.27422415 2 23 C1.34 22.67 0.68 22.34 0 22 C0 14.74 0 7.48 0 0 Z " fill="#0B102D" transform="translate(220,310)"/>
<path d="M0 0 C4.29 0.66 8.58 1.32 13 2 C13 2.66 13 3.32 13 4 C8.83861737 4.08159574 5.0527516 3.98248524 1 3 C0.67 2.01 0.34 1.02 0 0 Z " fill="#091033" transform="translate(162,187)"/>
<path d="M0 0 C5.37305699 -0.44041451 5.37305699 -0.44041451 8 0 C10 2.5 10 2.5 11 5 C7.80389448 5 6.58282374 4.45328458 3.8125 3 C3.09707031 2.62875 2.38164062 2.2575 1.64453125 1.875 C1.10183594 1.58625 0.55914062 1.2975 0 1 C0 0.67 0 0.34 0 0 Z " fill="#2D4172" transform="translate(189,73)"/>
<path d="M0 0 C0.66 0.33 1.32 0.66 2 1 C-1.75 5.875 -1.75 5.875 -4 7 C-4.33 7.99 -4.66 8.98 -5 10 C-5.99 10 -6.98 10 -8 10 C-6.34908222 5.70761377 -3.26245434 3.1206085 0 0 Z " fill="#7188C0" transform="translate(145,79)"/>
<path d="M0 0 C1.32 0 2.64 0 4 0 C4 1.65 4 3.3 4 5 C1.69 5.33 -0.62 5.66 -3 6 C-2 4 -1 2 0 0 Z " fill="#9EB7F6" transform="translate(228,132)"/>
<path d="M0 0 C0.33 0.66 0.66 1.32 1 2 C0.06421005 4.35981813 -0.93347808 6.69631264 -2 9 C-2.99 9 -3.98 9 -5 9 C-5.33 8.01 -5.66 7.02 -6 6 C-4 4 -2 2 0 0 Z " fill="#94ACEA" transform="translate(213,126)"/>
<path d="M0 0 C0.763125 0.20625 1.52625 0.4125 2.3125 0.625 C2.3125 1.285 2.3125 1.945 2.3125 2.625 C0.0025 2.625 -2.3075 2.625 -4.6875 2.625 C-5.0175 4.275 -5.3475 5.925 -5.6875 7.625 C-6.3475 6.305 -7.0075 4.985 -7.6875 3.625 C-7.0275 3.625 -6.3675 3.625 -5.6875 3.625 C-5.6875 2.965 -5.6875 2.305 -5.6875 1.625 C-2.6875 -0.375 -2.6875 -0.375 0 0 Z " fill="#151F40" transform="translate(251.6875,120.375)"/>
<path d="M0 0 C0.33 0.66 0.66 1.32 1 2 C-2.32307692 7.78461538 -2.32307692 7.78461538 -5.75 8.875 C-6.4925 8.91625 -7.235 8.9575 -8 9 C-5.68462045 5.27885429 -3.71420527 2.38770339 0 0 Z " fill="#8499D0" transform="translate(87,200)"/>
<path d="M0 0 C2.3125 0.1875 2.3125 0.1875 4 1 C-0.39453125 5.00390625 -0.39453125 5.00390625 -2 6 C-2.99 5.67 -3.98 5.34 -5 5 C-2.75 2.4375 -2.75 2.4375 0 0 Z " fill="#253867" transform="translate(68,202)"/>
<path d="M0 0 C1.98 1.65 3.96 3.3 6 5 C5.01 5.495 5.01 5.495 4 6 C3.67 6.66 3.34 7.32 3 8 C0.9375 5.6875 0.9375 5.6875 -1 3 C-0.67 2.01 -0.34 1.02 0 0 Z " fill="#1C2D59" transform="translate(209,72)"/>
<path d="M0 0 C0.99 0.33 1.98 0.66 3 1 C1.375 3.0625 1.375 3.0625 -1 5 C-4.25 4.75 -4.25 4.75 -7 4 C-5.1875 2.4375 -5.1875 2.4375 -3 1 C-2.01 1.33 -1.02 1.66 0 2 C0 1.34 0 0.68 0 0 Z " fill="#232C4E" transform="translate(78,245)"/>
<path d="M0 0 C0.6875 1.8125 0.6875 1.8125 1 4 C-0.64504011 6.46756016 -1.80299352 6.94960299 -4.6875 7.6875 C-5.8321875 7.8421875 -5.8321875 7.8421875 -7 8 C-6.02133662 6.85373678 -5.04205413 5.70800212 -4.0625 4.5625 C-3.51722656 3.92441406 -2.97195312 3.28632813 -2.41015625 2.62890625 C-1.63204305 1.73008851 -0.84063472 0.84063472 0 0 Z " fill="#8AA0D7" transform="translate(63,224)"/>
<path d="M0 0 C0.33 1.32 0.66 2.64 1 4 C-1.30368736 5.06652192 -3.64018187 6.06421005 -6 7 C-6.66 6.67 -7.32 6.34 -8 6 C-5.36 4.02 -2.72 2.04 0 0 Z " fill="#2A3D6C" transform="translate(203,144)"/>
<path d="M0 0 C-2.06756277 2.7972908 -3.14440371 3.02692273 -6.6875 3.6875 C-7.780625 3.790625 -8.87375 3.89375 -10 4 C-4.75 -1.425 -4.75 -1.425 0 0 Z " fill="#E3ECFD" transform="translate(162,81)"/>
<path d="M0 0 C1 2 1 2 0.4375 4 C-1.57302108 6.79724672 -3.74418077 7.15065585 -7 8 C-6.02133662 6.85373678 -5.04205413 5.70800212 -4.0625 4.5625 C-3.51722656 3.92441406 -2.97195312 3.28632813 -2.41015625 2.62890625 C-1.63204305 1.73008851 -0.84063472 0.84063472 0 0 Z " fill="#34477A" transform="translate(81,189)"/>
<path d="M0 0 C0.66 0 1.32 0 2 0 C1.8125 1.8125 1.8125 1.8125 1 4 C-1.5625 5.75 -1.5625 5.75 -4 7 C-4.33 6.34 -4.66 5.68 -5 5 C-4.34 5 -3.68 5 -3 5 C-2.67 4.01 -2.34 3.02 -2 2 C-1.34 2 -0.68 2 0 2 C0 1.34 0 0.68 0 0 Z " fill="#768BC3" transform="translate(101,185)"/>
<path d="M0 0 C-3.42346555 3.14958831 -6.44262737 3.56179109 -11 4 C-10.34 3.67 -9.68 3.34 -9 3 C-9 2.34 -9 1.68 -9 1 C-5.92677456 0.08941469 -3.19902639 -0.08886184 0 0 Z " fill="#7F96CE" transform="translate(192,152)"/>
<path d="M0 0 C0.6875 1.8125 0.6875 1.8125 1 4 C-0.4375 5.75 -0.4375 5.75 -2 7 C-2.33 6.34 -2.66 5.68 -3 5 C-6.02934491 4.34227572 -6.02934491 4.34227572 -9 4 C-9 3.67 -9 3.34 -9 3 C-7.88625 2.87625 -6.7725 2.7525 -5.625 2.625 C-1.96896323 2.3534187 -1.96896323 2.3534187 0 0 Z " fill="#758CC7" transform="translate(201,141)"/>
<path d="M0 0 C1 2 1 2 0.0625 5.125 C-0.288125 6.07375 -0.63875 7.0225 -1 8 C-2.65 8.33 -4.3 8.66 -6 9 C-4.02 6.03 -2.04 3.06 0 0 Z " fill="#2C3F6F" transform="translate(210,135)"/>
<path d="M0 0 C0.33 0.66 0.66 1.32 1 2 C-3.33273814 2.92844389 -6.66726186 2.92844389 -11 2 C-11 1.67 -11 1.34 -11 1 C-9.5437328 0.63743142 -8.08488815 0.28520207 -6.625 -0.0625 C-5.40683594 -0.35833984 -5.40683594 -0.35833984 -4.1640625 -0.66015625 C-2 -1 -2 -1 0 0 Z " fill="#152444" transform="translate(310,323)"/>
<path d="M0 0 C0.33 1.32 0.66 2.64 1 4 C-1.3125 6.0625 -1.3125 6.0625 -4 8 C-4.99 7.67 -5.98 7.34 -7 7 C-6.195625 6.7525 -5.39125 6.505 -4.5625 6.25 C-1.83364774 5.28621485 -1.83364774 5.28621485 -1.25 2.9375 C-1.1675 2.298125 -1.085 1.65875 -1 1 C-0.67 0.67 -0.34 0.34 0 0 Z " fill="#1F305E" transform="translate(34,236)"/>
<path d="M0 0 C0.99 0.33 1.98 0.66 3 1 C1.68 3.31 0.36 5.62 -1 8 C-1.33 8 -1.66 8 -2 8 C-2.125 5.125 -2.125 5.125 -2 2 C-1.34 1.34 -0.68 0.68 0 0 Z " fill="#A5BBED" transform="translate(142,90)"/>
<path d="M0 0 C0 0.99 0 1.98 0 3 C-2.5 4.6875 -2.5 4.6875 -5 6 C-5 5.01 -5 4.02 -5 3 C-2.5 1.3125 -2.5 1.3125 0 0 Z " fill="#798FC4" transform="translate(38,250)"/>
<path d="M0 0 C0 0.33 0 0.66 0 1 C-4.67201205 2.20568053 -9.21496292 2.09382426 -14 2 C-14 1.67 -14 1.34 -14 1 C-8.83955235 -0.512545 -5.34001821 -1.33500455 0 0 Z " fill="#0A1036" transform="translate(190,188)"/>
<path d="M0 0 C0.33 1.32 0.66 2.64 1 4 C-0.65 5.32 -2.3 6.64 -4 8 C-4.66 7.67 -5.32 7.34 -6 7 C-4.02 4.69 -2.04 2.38 0 0 Z " fill="#374B7C" transform="translate(96,173)"/>
<path d="M0 0 C1.07310858 3.27185553 0.89263102 5.42947592 0.0625 8.75 C-0.22947266 9.94882813 -0.22947266 9.94882813 -0.52734375 11.171875 C-0.68332031 11.77515625 -0.83929688 12.3784375 -1 13 C-1.33 13 -1.66 13 -2 13 C-3.46845421 7.52667068 -2.44038726 4.88077452 0 0 Z " fill="#0F1732" transform="translate(247,123)"/>
<path d="M0 0 C0.33 0.99 0.66 1.98 1 3 C-0.98 4.32 -2.96 5.64 -5 7 C-5 6.01 -5 5.02 -5 4 C-2.5 1.8125 -2.5 1.8125 0 0 Z " fill="#36487A" transform="translate(137,71)"/>
<path d="M0 0 C-0.625 1.9375 -0.625 1.9375 -2 4 C-5.125 4.75 -5.125 4.75 -8 5 C-3.16129032 0 -3.16129032 0 0 0 Z " fill="#324775" transform="translate(210,166)"/>
<path d="" fill="#FFFFFF" transform="translate(0,0)"/>
<path d="" fill="#FFFFFF" transform="translate(0,0)"/>
<path d="" fill="#FFFFFF" transform="translate(0,0)"/>
<path d="" fill="#FFFFFF" transform="translate(0,0)"/>
<path d="" fill="#FFFFFF" transform="translate(0,0)"/>
<path d="" fill="#FFFFFF" transform="translate(0,0)"/>
<path d="" fill="#FFFFFF" transform="translate(0,0)"/>
<path d="" fill="#FFFFFF" transform="translate(0,0)"/>
<path d="" fill="#FFFFFF" transform="translate(0,0)"/>
<path d="" fill="#FFFFFF" transform="translate(0,0)"/>
<path d="" fill="#FFFFFF" transform="translate(0,0)"/>
<path d="" fill="#FFFFFF" transform="translate(0,0)"/>
<path d="" fill="#FFFFFF" transform="translate(0,0)"/>
<path d="" fill="#FFFFFF" transform="translate(0,0)"/>
<path d="" fill="#FFFFFF" transform="translate(0,0)"/>
<path d="" fill="#FFFFFF" transform="translate(0,0)"/>
<path d="" fill="#FFFFFF" transform="translate(0,0)"/>
<path d="" fill="#FFFFFF" transform="translate(0,0)"/>
<path d="" fill="#FFFFFF" transform="translate(0,0)"/>
<path d="" fill="#FFFFFF" transform="translate(0,0)"/>
<path d="" fill="#FFFFFF" transform="translate(0,0)"/>
<path d="" fill="#FFFFFF" transform="translate(0,0)"/>
<path d="" fill="#FFFFFF" transform="translate(0,0)"/>
<path d="" fill="#FFFFFF" transform="translate(0,0)"/>
<path d="" fill="#FFFFFF" transform="translate(0,0)"/>
<path d="" fill="#FFFFFF" transform="translate(0,0)"/>
<path d="" fill="#FFFFFF" transform="translate(0,0)"/>
<path d="" fill="#FFFFFF" transform="translate(0,0)"/>
<path d="" fill="#FFFFFF" transform="translate(0,0)"/>
<path d="" fill="#FFFFFF" transform="translate(0,0)"/>
<path d="" fill="#FFFFFF" transform="translate(0,0)"/>
<path d="" fill="#FFFFFF" transform="translate(0,0)"/>
<path d="" fill="#FFFFFF" transform="translate(0,0)"/>
<path d="" fill="#FFFFFF" transform="translate(0,0)"/>
<path d="" fill="#FFFFFF" transform="translate(0,0)"/>
<path d="" fill="#FFFFFF" transform="translate(0,0)"/>
<path d="" fill="#FFFFFF" transform="translate(0,0)"/>
<path d="" fill="#FFFFFF" transform="translate(0,0)"/>
<path d="" fill="#FFFFFF" transform="translate(0,0)"/>
<path d="" fill="#FFFFFF" transform="translate(0,0)"/>
<path d="" fill="#FFFFFF" transform="translate(0,0)"/>
<path d="" fill="#FFFFFF" transform="translate(0,0)"/>
<path d="" fill="#FFFFFF" transform="translate(0,0)"/>
<path d="" fill="#FFFFFF" transform="translate(0,0)"/>
<path d="" fill="#FFFFFF" transform="translate(0,0)"/>
<path d="" fill="#FFFFFF" transform="translate(0,0)"/>
<path d="" fill="#FFFFFF" transform="translate(0,0)"/>
<path d="" fill="#FFFFFF" transform="translate(0,0)"/>
<path d="" fill="#FFFFFF" transform="translate(0,0)"/>
<path d="" fill="#FFFFFF" transform="translate(0,0)"/>
<path d="" fill="#FFFFFF" transform="translate(0,0)"/>
</svg>
